<svg xmlns="http://www.w3.org/2000/svg" xmlns:xlink="http://www.w3.org/1999/xlink" viewBox="0 0 209.85 209.85"><defs><style>.cls-1{fill:#ff227e;}.cls-2{fill:#ed0066;}.cls-3{opacity:0.3;fill:url(#radial-gradient);}.cls-4{fill:none;}</style><radialGradient id="radial-gradient" cx="104.93" cy="104.93" fx="46.41514422177172" fy="43.548824037949956" r="84.8" gradientUnits="userSpaceOnUse"><stop offset="0" stop-color="#fff" stop-opacity="0"/><stop offset="0.86" stop-color="#888" stop-opacity="0.47"/><stop offset="1"/></radialGradient></defs><g id="Layer_2" data-name="Layer 2"><g id="Layer_4" data-name="Layer 4"><circle class="cls-1" cx="104.93" cy="104.93" r="84.8"/><path class="cls-2" d="M104.93,20.13a84.8,84.8,0,1,0,84.79,84.8A84.79,84.79,0,0,0,104.93,20.13Zm32.22,80.63A171.22,171.22,0,0,0,129.66,83a174.86,174.86,0,0,0,27.56-22.49,68.3,68.3,0,0,1,16.24,40.67,116.46,116.46,0,0,0-28.71,5c-1.08.33-2.8.86-5.14,1.73C138.84,105.54,138,103.14,137.15,100.76Zm8.64-50.94a159.6,159.6,0,0,1-23.95,19.61,128.14,128.14,0,0,0-11.23-14.65A130.64,130.64,0,0,0,92,37.53a69.09,69.09,0,0,1,13-1.24A68.29,68.29,0,0,1,145.79,49.82Zm-72.7-5.67A114.76,114.76,0,0,1,98.52,65.51,111.74,111.74,0,0,1,108,77.71a164,164,0,0,1-71.1,18.58A68.79,68.79,0,0,1,73.09,44.15ZM36.65,112a179.5,179.5,0,0,0,79.08-20.65A163.15,163.15,0,0,1,122,106.38q1.55,4.14,2.83,8.36c-4.16,2.23-8.91,5-14.24,8.5a244,244,0,0,0-44.85,38A68.66,68.66,0,0,1,36.65,112Zm43.91,57.12a226.57,226.57,0,0,1,38.86-32.31c3.42-2.24,6.55-4.14,9.4-5.77a159,159,0,0,1,2.5,37.27,68.5,68.5,0,0,1-50.76.81Zm67.12-10.52a172.38,172.38,0,0,0-3.85-34.92c2.67-1,4.56-1.63,5.67-2a100.52,100.52,0,0,1,22.89-4.18A68.68,68.68,0,0,1,147.68,158.56Z"/><circle class="cls-3" cx="104.93" cy="104.93" r="84.8"/><rect class="cls-4" width="209.85" height="209.85"/></g></g></svg>