<svg xmlns="http://www.w3.org/2000/svg" xmlns:xlink="http://www.w3.org/1999/xlink" viewBox="0 0 1063.85 422.38"><defs><style>.cls-1{fill:#d1d66e;}.cls-10,.cls-11,.cls-12,.cls-13,.cls-14,.cls-15,.cls-16,.cls-17,.cls-2,.cls-23{opacity:0.8;}.cls-3{fill:url(#linear-gradient);}.cls-4{fill:#281a0c;}.cls-5{fill:#f4d0a4;}.cls-6{fill:#ddb180;}.cls-7{fill:#ff9292;}.cls-23,.cls-8{fill:#282828;}.cls-9{fill:#ff6;}.cls-10{fill:url(#linear-gradient-2);}.cls-11{fill:url(#linear-gradient-3);}.cls-12{fill:url(#linear-gradient-4);}.cls-13{fill:url(#linear-gradient-5);}.cls-14{fill:url(#linear-gradient-6);}.cls-15{fill:url(#linear-gradient-7);}.cls-16{fill:url(#linear-gradient-8);}.cls-17{fill:url(#Degradado_sin_nombre_6);}.cls-18{fill:#a1e8af;}.cls-19{fill:#cae5ff;}.cls-20{fill:#373d20;}.cls-21{fill:#da627d;}.cls-22{fill:#9a348e;}.cls-24{fill:url(#linear-gradient-9);}.cls-25{fill:url(#linear-gradient-10);}.cls-26{fill:url(#linear-gradient-11);}.cls-27{fill:url(#linear-gradient-12);}.cls-28{fill:url(#linear-gradient-13);}.cls-29{fill:url(#linear-gradient-14);}.cls-30{fill:url(#linear-gradient-15);}.cls-31{fill:url(#linear-gradient-16);}.cls-32{fill:url(#linear-gradient-17);}</style><linearGradient id="linear-gradient" x1="777.68" y1="137.93" x2="921.77" y2="567.79" gradientTransform="translate(48.74 -34.45)" gradientUnits="userSpaceOnUse"><stop offset="0" stop-color="#addeff" stop-opacity="0.5"/><stop offset="0.3" stop-color="#c4e7ff" stop-opacity="0.64"/><stop offset="0.97" stop-color="#fdfeff" stop-opacity="0.99"/><stop offset="1" stop-color="#fff"/></linearGradient><linearGradient id="linear-gradient-2" x1="-214.81" y1="321.24" x2="-164.08" y2="321.24" gradientTransform="translate(959.17 -284.22) scale(1.37 1)" gradientUnits="userSpaceOnUse"><stop offset="0" stop-color="#fff" stop-opacity="0.5"/><stop offset="0.39" stop-color="#fff" stop-opacity="0.68"/><stop offset="1" stop-color="#fff"/></linearGradient><linearGradient id="linear-gradient-3" x1="1251.55" y1="-713.14" x2="1302.28" y2="-713.14" gradientTransform="translate(-450.97 738.79) scale(1.14 1)" xlink:href="#linear-gradient-2"/><linearGradient id="linear-gradient-4" x1="220.03" y1="717.42" x2="270.76" y2="717.42" gradientTransform="translate(669.88 -344.68) scale(1.46 1)" xlink:href="#linear-gradient-2"/><linearGradient id="linear-gradient-5" x1="-280.47" y1="674.48" x2="-229.74" y2="674.48" gradientTransform="translate(1213.14 -290.26) scale(0.79 1)" xlink:href="#linear-gradient-2"/><linearGradient id="linear-gradient-6" x1="-1263.05" y1="-1182.03" x2="-1212.32" y2="-1182.03" gradientTransform="translate(2286.71 1575.16) scale(1.28 1)" xlink:href="#linear-gradient-2"/><linearGradient id="linear-gradient-7" x1="-2008.73" y1="-355.91" x2="-1958" y2="-355.91" gradientTransform="translate(2111.06 745.69) scale(0.71 1)" xlink:href="#linear-gradient-2"/><linearGradient id="linear-gradient-8" x1="761.55" y1="-42.33" x2="812.28" y2="-42.33" gradientTransform="translate(-94.66 81.58) scale(1.01 1)" xlink:href="#linear-gradient-2"/><linearGradient id="Degradado_sin_nombre_6" x1="125.69" y1="375.42" x2="126.42" y2="74.44" gradientTransform="matrix(0.86, 0, 0, 1, 39.97, -22.89)" gradientUnits="userSpaceOnUse"><stop offset="0" stop-color="#fff" stop-opacity="0.8"/><stop offset="1" stop-color="#fff"/></linearGradient><linearGradient id="linear-gradient-9" x1="296.23" y1="-591.06" x2="342.65" y2="-591.06" gradientTransform="translate(-194.38 648.5) scale(1.45 1)" xlink:href="#linear-gradient-2"/><linearGradient id="linear-gradient-10" x1="286.01" y1="-59.54" x2="332.43" y2="-59.54" gradientTransform="translate(-86.33 115.92) scale(1.13 1)" xlink:href="#linear-gradient-2"/><linearGradient id="linear-gradient-11" x1="-78.11" y1="138.31" x2="-31.69" y2="138.31" gradientTransform="translate(95.63 -81.59) scale(1.13 1)" xlink:href="#linear-gradient-2"/><linearGradient id="linear-gradient-12" x1="-1942.62" y1="-13.13" x2="-1896.2" y2="-13.13" gradientTransform="translate(2199.39 69.85) scale(1.13 1)" xlink:href="#linear-gradient-2"/><linearGradient id="linear-gradient-13" x1="294.5" y1="-217.53" x2="340.92" y2="-217.53" gradientTransform="translate(-250.04 564.37) scale(0.85 1)" xlink:href="#linear-gradient-2"/><linearGradient id="linear-gradient-14" x1="-722.07" y1="-2687.83" x2="-675.65" y2="-2687.83" gradientTransform="translate(1188.82 3040.52) scale(1.33 1)" xlink:href="#linear-gradient-2"/><linearGradient id="linear-gradient-15" x1="-1940.54" y1="-1901.07" x2="-1894.12" y2="-1901.07" gradientTransform="translate(2827.67 2246.77) scale(1.33 1)" xlink:href="#linear-gradient-2"/><linearGradient id="linear-gradient-16" x1="-2325.94" y1="-473.28" x2="-2279.52" y2="-473.28" gradientTransform="translate(2499.99 824.05) scale(0.97 1)" xlink:href="#linear-gradient-2"/><linearGradient id="linear-gradient-17" x1="-1092.25" y1="465.39" x2="-1045.83" y2="465.39" gradientTransform="translate(933.52 -118.55) scale(0.85 1)" xlink:href="#linear-gradient-2"/></defs><g id="Capa_2" data-name="Capa 2"><g id="Layer_5" data-name="Layer 5"><path class="cls-1" d="M185.5,198l2.83,3a6.57,6.57,0,0,0,4.57,2H193l36.77.82h.07a6.61,6.61,0,0,0,4.64-1.84L253.34,184a6.6,6.6,0,0,0,.21-9.34,6.65,6.65,0,0,0-4.71-2,6.57,6.57,0,0,0-4.64,1.83l-16.91,16.18-31.29-.7-1.56-1.63,15.77.35h.08a6.62,6.62,0,0,0,4.84-11.19,6.55,6.55,0,0,0-4.64-2L193.27,175l-6.5-6.79a6.54,6.54,0,0,0-4.66-2.05l-9.52-.21,3-2.91,34,.76h.08A6.57,6.57,0,0,0,214.4,162l8.64-8.26a6.61,6.61,0,1,0-9.14-9.55l-6.66,6.36-11.67-.26a6.58,6.58,0,0,0-1.83-4.35l-3.42-3.58,10.6.24H201a6.61,6.61,0,0,0,4.82-11.21,6.54,6.54,0,0,0-4.61-2L183.12,129h-.07a6.63,6.63,0,0,0-6.68,6.46l-.19,8.46A6.56,6.56,0,0,0,178,148.6l1.25,1.31-6.06-.14h-.08a6.52,6.52,0,0,0-4.64,1.84l-3.21,3.07-20.11-.45L170.48,130a6.59,6.59,0,0,0,2-4.63l.59-26.53a6.59,6.59,0,0,0-6.49-6.76h0a6.64,6.64,0,0,0-6.68,6.46l-.53,23.8-28.44,27.19a6.56,6.56,0,0,0-2,4.62l-.45,20.33-3.3-.07a7.58,7.58,0,0,0-.45-1l1.29-1.23a6.56,6.56,0,0,0,2-4.62l.25-11.39a6.53,6.53,0,0,0-1.83-4.71l-39.18-41a6.61,6.61,0,1,0-9.55,9.13l37.29,39-.14,5.91-7.29,7L99,162.56h0l-.29-.3-.27-.28h0L84.69,147.59a6.72,6.72,0,0,0-1.1-1.16l-5.91-6.18.33-15a6.67,6.67,0,0,0-1.9-4.79l-6.49-6.58A6.58,6.58,0,0,0,65,112h0a6.61,6.61,0,0,0-4.77,11.25l4.52,4.59-.33,14.9a6.72,6.72,0,0,0,.24,1.91l-10.44-.23h-.08a6.55,6.55,0,0,0-4.64,1.83l-5.66,5.42A6.61,6.61,0,0,0,48,163h.32A6.55,6.55,0,0,0,53,161.17l3.69-3.52,19.81.44,8.15,8.52-8.19,7.83-1.06,0L64.47,163a6.6,6.6,0,0,0-11.38,4.42,6.57,6.57,0,0,0,1.83,4.72l12.77,13.35a6.59,6.59,0,0,0,4.38,2h.26l6.52.15h.08a6.55,6.55,0,0,0,4.64-1.83l10.17-9.72L98,180.64l-1.66,1.59a6.59,6.59,0,0,0-2,4.63l-.2,8.9A6.61,6.61,0,0,0,96,200.48l3,3.12-.16,7.26-.74.7-6.44-.14h-.08a6.59,6.59,0,0,0-4.64,1.83L75.73,223.91l-21.41-.48h-.07a6.55,6.55,0,0,0-4.64,1.83l-6.83,6.53a6.62,6.62,0,0,0-.21,9.35,6.61,6.61,0,0,0,4.38,2h.32a6.56,6.56,0,0,0,4.64-1.84l4.85-4.64,2.1.05a7.9,7.9,0,0,0-.07.85,6.57,6.57,0,0,0,1.83,4.72,6.69,6.69,0,0,0,4.71,2A6.58,6.58,0,0,0,70,242.52l1.67-1.6,4.89.11,14.63,15.3-1.58,1.52-15.71-.35h-.08a6.64,6.64,0,0,0-4.64,1.84l-9.24,8.84-13.42-.3h-.08a6.61,6.61,0,0,0-.46,13.2h.25l16.15.36h.08a6.57,6.57,0,0,0,4.64-1.83l9.24-8.84,15.71.35h.07a6.61,6.61,0,0,0,4.64-1.84l3.57-3.4,18.84,19.7-.14,6.63-4.84,4.63-77.39-1.74h-.08a6.61,6.61,0,0,0-.47,13.21h.26L111,310,95.86,324.46A6.61,6.61,0,0,0,100,335.83l.32,0A6.61,6.61,0,0,0,105,334l24.88-23.79a6.56,6.56,0,0,0,2-4.62l.41-18.38,10.06-9.63,2.47,2.59-.07,3.46a6.53,6.53,0,0,0,1.83,4.71l10,10.47a6.65,6.65,0,0,0,2.67,1.69l-13.19,12.61a6.59,6.59,0,0,0-2,4.63l-.39,17.48A6.6,6.6,0,0,0,149.9,342h.32a6.63,6.63,0,0,0,6.68-6.46l.33-14.74,6.81-6.52,12,12.59a6.62,6.62,0,0,0,9.35.21l13.38-12.79,5.4.12h.08a6.61,6.61,0,0,0,4.85-11.18l-49.3-51.55.87-38.87a6.57,6.57,0,0,0-1.83-4.72l-4.16-4.34,1.7-1.63,10.69.24.94,1-.24,10.78a6.57,6.57,0,0,0,1.83,4.72l4.08,4.26a6.56,6.56,0,0,0,4.6,2l4,.09L182,237.61a6.59,6.59,0,0,0,6.22,6.74h.32a6.64,6.64,0,0,0,6.68-6.46l.42-19a6.68,6.68,0,0,0-.35-2.28l2.28.05L228,248.51a6.61,6.61,0,0,0,4.38,2h.32a6.61,6.61,0,0,0,4.85-11.18l-32.33-33.8a6.6,6.6,0,0,0-4.64-2l-12.32-.28-4.79-5V198Zm-1.88-5.44h0l4.1.09ZM166.76,306.06v0Zm-4.83-13,2.78.07h0l-2.78-.07-9.32-9.74Zm2.16,10.6a1.07,1.07,0,0,1,.31-.06h0l1.76,0h0l-1.76,0A1.2,1.2,0,0,0,164.09,303.65Zm-.54.27a1.24,1.24,0,0,1,.39-.25A1.24,1.24,0,0,0,163.55,303.92Zm-15.5-31.73h0l23.93,25a1.19,1.19,0,0,1,.33.86l-.15,6.88a1.2,1.2,0,0,1-.11.47,1.2,1.2,0,0,0,.11-.47l.15-6.88a1.19,1.19,0,0,0-.33-.86ZM120.32,170.13h0l1.93-1.84Zm55.56,123.35L154.4,271l2.87-2.91L191,303.42l-10,9.53-4.45-4.65a6.47,6.47,0,0,0,.93-3.23l.16-6.87A6.54,6.54,0,0,0,175.88,293.48Zm-69.73-78.86a1.14,1.14,0,0,0,.27-.39,1.2,1.2,0,0,0,.11-.46l.27-12.23,7.21-6.89-7.21,6.89-.27,12.23a1.2,1.2,0,0,1-.11.46,1.14,1.14,0,0,1-.27.39l-4.69,4.49a1.28,1.28,0,0,1-.4.25,1.28,1.28,0,0,0,.4-.25Zm16.7,22.23,5.25-5a1.23,1.23,0,0,0,.37-.85l.66-29.6h0l-.66,29.6a1.23,1.23,0,0,1-.37.85l-5.25,5Zm-16.67-10.51a1.21,1.21,0,0,0-.31.06,1.07,1.07,0,0,1,.3-.06Zm1.29-36.45L109,188.4h.22l-.28.25-1.51,1.44Zm6.08,2.33h0l12.59.28h0l-12.59-.28a1.12,1.12,0,0,0-.31.05A1.57,1.57,0,0,1,113.55,192.22Zm-.45.08a1.28,1.28,0,0,0-.4.25A1.28,1.28,0,0,1,113.1,192.3Zm8.24,7.91-.47,21.06-13.54-.3,2.55-2.45a6.54,6.54,0,0,0,2-4.63l.23-10,4-3.81Zm-15.62,26.21a1.36,1.36,0,0,0-.38.24A1.36,1.36,0,0,1,105.72,226.42Zm-7.49,9.72a1,1,0,0,0,.34,0,1.26,1.26,0,0,1-.28,0h-.06a1.5,1.5,0,0,1-.35-.09A1.5,1.5,0,0,0,98.23,236.14Zm.9-.33,7.49-7,19.47.44-19.47-.44-7.49,7a1,1,0,0,1-.41.25A1,1,0,0,0,99.13,235.81ZM120.68,250l20.71.46h.08a4,4,0,0,0,.49,0l-.11,5.36-17.18,16.42-13-13.61Zm20.83-4.94a1.13,1.13,0,0,0,.32-.05,1,1,0,0,1-.3.05ZM142,245a1.28,1.28,0,0,0,.4-.25A1.28,1.28,0,0,1,142,245Zm.33-11L139,237.21l-8.46-.19,1.34-1.29a6.56,6.56,0,0,0,2-4.62l.54-24.05L142.7,216Zm-48.53-3.87a6.61,6.61,0,0,0-.29,9.34,6.6,6.6,0,0,0,4.42,2.07h.33a6.57,6.57,0,0,0,4.6-1.8l5.87-5.52,5.45.12L100.71,247.2,86.28,232.11,94,224.7l5.38.12Zm31,52.63a1.57,1.57,0,0,1-.3.05h0A1.13,1.13,0,0,0,124.75,282.75Zm.53-.27a1.17,1.17,0,0,1-.38.24A1.17,1.17,0,0,0,125.28,282.48Zm21-88.93-2.52-2.64L144,179.2l.68-.64,24.81.55,1.2,1.26-.16,6.75-2.12,2L154,188.83h-.07a6.6,6.6,0,0,0-4.65,1.84Zm32-16.61a1.23,1.23,0,0,1,.33.87l-.15,6.85h0l.15-6.85A1.23,1.23,0,0,0,178.22,176.94Zm5.59,7.3.53.55h-.54Zm-80.39,2-1.3,1.25v0l1.3-1.25Zm-3.71.69v0s0-.06,0-.1S99.71,187,99.71,187Zm.88,32.46a1.75,1.75,0,0,0,.33-.05,1.67,1.67,0,0,1-.31.05h0l-8.67-.19ZM69.07,233h0l10.36.24a1.18,1.18,0,0,1,.62.21,1.18,1.18,0,0,0-.62-.21L69.08,233a1.2,1.2,0,0,0-.32.06A1.07,1.07,0,0,1,69.07,233Zm-.46.09a1.08,1.08,0,0,0-.39.25A1.08,1.08,0,0,1,68.61,233.13Zm9.68-1.35a1.26,1.26,0,0,0,.33-.05,1.18,1.18,0,0,1-.31.05Zm.47-.08a1.28,1.28,0,0,0,.4-.25A1.28,1.28,0,0,1,78.76,231.7ZM125,283.46l13.38-12.8h0L125,283.46a1.1,1.1,0,0,0-.27.38A1.1,1.1,0,0,1,125,283.46Zm44.93,15.06-.11,5.17h0Zm2.08,7a1.45,1.45,0,0,1-.17.26A1.45,1.45,0,0,0,172,305.54Zm-.33.36c-.08.05-.15.11-.23.15C171.48,306,171.55,306,171.63,305.9Zm-.43.18a.81.81,0,0,1-.27.05h0A.87.87,0,0,0,171.2,306.08Zm-2,0-.05,2.19,11.77,12.3h0l-11.77-12.3Zm26.2.65a1.31,1.31,0,0,1,.4-.26,1.31,1.31,0,0,0-.4.26l-7.33,7Zm.55-.28a1.07,1.07,0,0,1,.3-.06h0l5.23.12-5.23-.12A1.13,1.13,0,0,0,195.93,306.46ZM153.85,194.23h0l16.5.37h0l-16.5-.37a1.07,1.07,0,0,0-.31.06A1,1,0,0,1,153.85,194.23Zm-.46.09a1.08,1.08,0,0,0-.39.25A1.08,1.08,0,0,1,153.39,194.32Zm22.25,19.47,3.38,3.54-3.38-3.54Zm2.59-21.32Zm51.62,6-36.77-.83,36.77.83a1.13,1.13,0,0,0,.32-.06,1.55,1.55,0,0,1-.31.06Zm19.76-18.41-18.9,18.07a1.24,1.24,0,0,1-.39.25,1.24,1.24,0,0,0,.39-.25l18.9-18.07a1.23,1.23,0,0,0,.37-.85A1.23,1.23,0,0,1,249.61,180.06Zm.29-1.3a1.16,1.16,0,0,0-.25-.41h0A1.16,1.16,0,0,1,249.9,178.76Zm-.65-.68-.16,0Zm-.46-.1a1.57,1.57,0,0,0-.3.05,1.6,1.6,0,0,1,.29-.05Zm-.84.33a1.08,1.08,0,0,1,.39-.25A1.08,1.08,0,0,0,248,178.31ZM229.4,196l9.38-9-9.38,9-17.88-.4Zm-19.07-12.82a.88.88,0,0,0,.28-.06,1.18,1.18,0,0,1-.27.06Zm.48-.09a1.25,1.25,0,0,0,.24-.16A1.25,1.25,0,0,1,210.81,183.13Zm.38-.25a1.1,1.1,0,0,0,.18-.26A1.1,1.1,0,0,1,211.19,182.88Zm.27-.38a1.41,1.41,0,0,0,.11-.47A1.41,1.41,0,0,1,211.46,182.5ZM182.87,172a1.22,1.22,0,0,0-.85-.38l-37.84-.84h0l37.84.84A1.22,1.22,0,0,1,182.87,172Zm-15-9.4a1.19,1.19,0,0,0,.32-.05,1.06,1.06,0,0,1-.31.05Zm42-4.14-36.28-.81-4.83,4.62a1.24,1.24,0,0,1-.39.25,1.24,1.24,0,0,0,.39-.25l4.83-4.62,36.28.81a1.64,1.64,0,0,0,.32,0,1.54,1.54,0,0,1-.31,0Zm-19.74-2.86h0l.11-5a1.19,1.19,0,0,0-.33-.86,1.19,1.19,0,0,1,.33.86Zm20.21,2.78a1.14,1.14,0,0,0,.39-.25A1.14,1.14,0,0,1,210.27,158.33Zm8.68-10.5-.17,0Zm-.46-.1a1.57,1.57,0,0,0-.3.05,1.47,1.47,0,0,1,.29-.05Zm-.45.08a1.19,1.19,0,0,0-.41.26A1.19,1.19,0,0,1,218,147.81Zm-17-10.63a1.37,1.37,0,0,0,.28-.05,1.28,1.28,0,0,1-.27.05Zm.47-.09a1.16,1.16,0,0,0,.24-.14A1.16,1.16,0,0,1,201.51,137.09Zm.39-.25a1.14,1.14,0,0,0,.18-.25A1.14,1.14,0,0,1,201.9,136.84Zm.27-.37a1.24,1.24,0,0,0,.1-.47A1.24,1.24,0,0,1,202.17,136.47ZM183,134.36l18.09.4a1.2,1.2,0,0,1,.47.11,1.2,1.2,0,0,0-.47-.11l-18.09-.4a1.26,1.26,0,0,0-.28,0,1.17,1.17,0,0,1,.27,0Zm-.47.09a1.16,1.16,0,0,0-.24.14A1.16,1.16,0,0,1,182.53,134.45Zm-.39.25a1.37,1.37,0,0,0-.18.24A1.37,1.37,0,0,1,182.14,134.7Zm-.37.84a1.24,1.24,0,0,1,.1-.47,1.24,1.24,0,0,0-.1.47l-.19,8.46Zm-8.69,19.63,14.56.33-14.56-.33a1.13,1.13,0,0,0-.32.06,1.07,1.07,0,0,1,.3-.06Zm-.47.08a1.31,1.31,0,0,0-.4.26A1.31,1.31,0,0,1,172.61,155.25Zm-5.23,4.88h0l-24-.54a1.77,1.77,0,0,0-.32,0,1.54,1.54,0,0,1,.31,0h0Zm-24.83-.21a1.24,1.24,0,0,1,.39-.25A1.24,1.24,0,0,0,142.55,159.92Zm24.57-34.65a1.23,1.23,0,0,1-.37.85L136.7,154.85l-.07,3.27h0l.07-3.27,30.05-28.73a1.23,1.23,0,0,0,.37-.85l.59-26.53Zm-.59-27.77a1.19,1.19,0,0,1,.85.38,1.19,1.19,0,0,0-.85-.38,1.26,1.26,0,0,0-.28,0,1.17,1.17,0,0,1,.27,0Zm-.47.09a1.94,1.94,0,0,0-.24.15A1.94,1.94,0,0,1,166.06,97.59Zm-.39.25a1.6,1.6,0,0,0-.18.25A1.6,1.6,0,0,1,165.67,97.84Zm-.27.38a1.2,1.2,0,0,0-.1.47A1.2,1.2,0,0,1,165.4,98.22Zm-42.86,57-39.18-41h0ZM83,114l-.15,0Zm-.45-.09a1,1,0,0,0-.3,0,.93.93,0,0,1,.29,0Zm-.85.32a1.15,1.15,0,0,1,.39-.24A1.15,1.15,0,0,0,81.66,114.18Zm-.2,1.47a1.14,1.14,0,0,1-.18-.61A1.14,1.14,0,0,0,81.46,115.65ZM94.82,166l0,0,8.82,9.23h0L94.84,166l0,0,0,0ZM72.61,125.17l-.38,17.19L80,150.5l-7.78-8.14.38-17.19a1.2,1.2,0,0,0-.35-.88A1.2,1.2,0,0,1,72.61,125.17Zm-2.48,18.5a1.18,1.18,0,0,1-.25-.4,1.18,1.18,0,0,0,.25.4l6.31,6.6Zm-4.91-26.26a1,1,0,0,0-.3-.06h0A1,1,0,0,1,65.22,117.41Zm.56.3a1.28,1.28,0,0,0-.4-.27A1.28,1.28,0,0,1,65.78,117.71Zm-1.15-.31s-.11,0-.16,0S64.58,117.42,64.63,117.4Zm-.93,1.15a1.22,1.22,0,0,0,.09.46A1.22,1.22,0,0,1,63.7,118.55Zm-9.62,31.22a1.13,1.13,0,0,0-.32.06,1.07,1.07,0,0,1,.3-.06Zm-.47.08a1.28,1.28,0,0,0-.4.25A1.28,1.28,0,0,1,53.61,149.85Zm-5.3,7.75a1.28,1.28,0,0,1-.43-.1,1.28,1.28,0,0,0,.43.1,1,1,0,0,0,.34,0,.69.69,0,0,1-.28,0Zm30.5-4.86-24.29-.54-5.3,5.07a1.23,1.23,0,0,1-.42.26,1.23,1.23,0,0,0,.42-.26l5.3-5.07,24.29.54,13.43,14h0Zm-5.81,27,5.53.12,6.85-6.55-6.85,6.55L73,179.77l-12.43-13ZM60.17,166.5l-.15,0Zm-.46-.1a1.57,1.57,0,0,0-.3,0,1.57,1.57,0,0,1,.3,0Zm-.45.08a1.41,1.41,0,0,0-.4.25A1.41,1.41,0,0,1,59.26,166.48ZM79,182.32a1.2,1.2,0,0,0,.33-.06,1.13,1.13,0,0,1-.31.06Zm.87-.33a1.28,1.28,0,0,1-.4.25,1.28,1.28,0,0,0,.4-.25l14.07-13.46h0Zm11.63,34.83h0a1.77,1.77,0,0,0-.32.05,1.54,1.54,0,0,1,.31-.05Zm-.85.33a1.19,1.19,0,0,1,.38-.25A1.19,1.19,0,0,0,90.62,217.15ZM54.2,228.83a1.06,1.06,0,0,0-.31,0,1.57,1.57,0,0,1,.3,0Zm-.46.08a1.18,1.18,0,0,0-.4.25A1.18,1.18,0,0,1,53.74,228.91Zm-7.61,7.63a1.44,1.44,0,0,0,.08.46A1.44,1.44,0,0,1,46.13,236.54Zm.34.86a1.08,1.08,0,0,0,.59.32A1.08,1.08,0,0,1,46.47,237.4Zm.8.38a2,2,0,0,0,.34-.05,1.37,1.37,0,0,1-.28.05Zm.91-.34a1.23,1.23,0,0,1-.42.26,1.23,1.23,0,0,0,.42-.26l6.47-6.18h0Zm16.74,1.42a.9.9,0,0,0,.16,0A.9.9,0,0,1,64.92,238.86Zm.46.1a1.07,1.07,0,0,0,.3-.06,1.07,1.07,0,0,1-.29.06Zm4.15-3.49-3.3,3.15a1.15,1.15,0,0,1-.4.26,1.15,1.15,0,0,0,.4-.26l3.3-3.15,9.36.21,11.27,11.79L78.89,235.68Zm4.22,27.42a1.2,1.2,0,0,0-.32.06,1.55,1.55,0,0,1,.31-.06Zm-.85.33a1.17,1.17,0,0,1,.38-.24A1.17,1.17,0,0,0,72.9,263.22Zm-26.53,10a1,1,0,0,0-.29.05.87.87,0,0,1,.28-.05Zm-.48.08a.94.94,0,0,0-.23.16A.94.94,0,0,1,45.89,273.35Zm-.38.25a1.05,1.05,0,0,0-.18.25A1.05,1.05,0,0,1,45.51,273.6Zm-.27.38a1.41,1.41,0,0,0-.11.47A1.41,1.41,0,0,1,45.24,274ZM62.47,276h0a.89.89,0,0,0,.32-.05,1.55,1.55,0,0,1-.31.06Zm.47-.08a1.24,1.24,0,0,0,.39-.25A1.24,1.24,0,0,1,62.94,276Zm29.2-10.23a1.2,1.2,0,0,0,.32-.06,1.55,1.55,0,0,1-.31.06Zm.85-.33a1.17,1.17,0,0,1-.38.24A1.17,1.17,0,0,0,93,265.4ZM36.65,300.51a1.47,1.47,0,0,0-.29.05,1.28,1.28,0,0,1,.27-.05Zm-.48.09a1.2,1.2,0,0,0-.24.15A1.2,1.2,0,0,1,36.17,300.6Zm-.39.25a1.31,1.31,0,0,0-.17.24A1.31,1.31,0,0,1,35.78,300.85Zm-.27.38a1.43,1.43,0,0,0-.09.42A1.43,1.43,0,0,1,35.51,301.23ZM99.6,328.36l24.51-23.44.16-6.93-6.69,6.4a1.24,1.24,0,0,1-.39.25,1.24,1.24,0,0,0,.39-.25l6.69-6.4-.16,6.93L99.6,328.36a1.21,1.21,0,0,0-.28.4A1.21,1.21,0,0,1,99.6,328.36Zm17.12-23.64a1.19,1.19,0,0,0,.32-.05,1.54,1.54,0,0,1-.31.05Zm-16.36,25.72a1.32,1.32,0,0,0,.34,0,1.37,1.37,0,0,1-.28.05ZM127,284.86l-.46,20.62a1.21,1.21,0,0,1-.37.84l-24.88,23.79a1.33,1.33,0,0,1-.42.26,1.33,1.33,0,0,0,.42-.26l24.88-23.79a1.21,1.21,0,0,0,.37-.84l.46-20.62,12-11.43h0Zm23.28,51.73a1.26,1.26,0,0,0,.28,0,1.19,1.19,0,0,1-.26,0Zm.48-.09a.7.7,0,0,0,.23-.15A.7.7,0,0,1,150.74,336.5Zm.39-.25a1.31,1.31,0,0,0,.17-.24A1.31,1.31,0,0,1,151.13,336.25Zm.26-.38a1,1,0,0,0,.11-.46A1,1,0,0,1,151.39,335.87Zm29-12.47c.05,0,.11,0,.16,0S180.43,323.43,180.38,323.4Zm.46.1a1.57,1.57,0,0,0,.3-.05,1.47,1.47,0,0,1-.29.05Zm.45-.08a1.16,1.16,0,0,0,.41-.25A1.16,1.16,0,0,1,181.29,323.42ZM204.34,309l.21,0a1.38,1.38,0,0,1-.2,0Zm.36-.05.19-.08Zm.31-.14a1.3,1.3,0,0,0,.18-.15A1.3,1.3,0,0,1,205,308.81Zm.27-.23a1.53,1.53,0,0,0,.19-.3A1.53,1.53,0,0,1,205.28,308.58Zm0-1.62L155.1,254.52h0ZM151,199.83l3.32-3.17L151,199.83ZM188.6,239a1.47,1.47,0,0,0,.29-.05,1.28,1.28,0,0,1-.27.05Zm.72-.24a1.94,1.94,0,0,1-.24.15A1.94,1.94,0,0,0,189.32,238.73Zm.15-.1a1.2,1.2,0,0,0,.18-.26A1.2,1.2,0,0,1,189.47,238.63Zm.37-.85a1,1,0,0,1-.11.47,1,1,0,0,0,.11-.47l.43-19Zm42.89,7.37a2.15,2.15,0,0,0,.34-.05,1.51,1.51,0,0,1-.28.05Zm.49-.08a1.33,1.33,0,0,0,.42-.26A1.33,1.33,0,0,1,233.22,245.07Zm.46-2a1.16,1.16,0,0,1,.25.41,1.16,1.16,0,0,0-.25-.41l-32.33-33.8A1.1,1.1,0,0,0,201,209a1.1,1.1,0,0,1,.38.27ZM200.81,209a1.07,1.07,0,0,0-.3-.06h0A1.07,1.07,0,0,1,200.81,209Z"/><g class="cls-2"><rect class="cls-3" x="697.7" y="21.67" width="326.21" height="368.81" transform="translate(-7.09 32.26) rotate(-2.14)"/><path class="cls-4" d="M735.92,208.52H871.59a0,0,0,0,1,0,0v82.73a67.84,67.84,0,0,1-67.84,67.84h0a67.84,67.84,0,0,1-67.84-67.84V208.52A0,0,0,0,1,735.92,208.52Z" transform="translate(-10.03 30.19) rotate(-2.14)"/><path d="M829.47,334.34h0a67.83,67.83,0,0,1-70.32-65.25L757,210.21l-23.79.89,3.09,82.67A67.83,67.83,0,0,0,806.57,359h0a67.81,67.81,0,0,0,57.09-35.44A67.54,67.54,0,0,1,829.47,334.34Z"/><path class="cls-5" d="M750.31,162l2.19,58.52a16.14,16.14,0,0,0-3.3,1.88c-9.82,7.4-9.27,25.51.93,33.79a21,21,0,0,0,5.44,3.14,67.85,67.85,0,0,0,68.15,50.6h0A67.84,67.84,0,0,0,889,239.57l-3.09-62.67Z"/><path class="cls-6" d="M832.39,306.53a67.85,67.85,0,0,1-68.15-50.6,20.92,20.92,0,0,1-5.43-3.14c-10.2-8.28-10.76-26.39-.93-33.78a15.37,15.37,0,0,1,3.29-1.88l-2.07-55.5-8.79.33,2.19,58.52a16.14,16.14,0,0,0-3.3,1.88c-9.82,7.4-9.27,25.51.93,33.79a21,21,0,0,0,5.44,3.14,67.85,67.85,0,0,0,94.48,44.21A67.55,67.55,0,0,1,832.39,306.53Z"/><path d="M813.2,240.46h0a3.56,3.56,0,0,1-3.7-3.43v-.27c.09-3.47,1.77-8.28,6.2-10.45a11.82,11.82,0,0,1,7.07-1.1c4.67.74,8.53,4.87,9.63,10.27a3.58,3.58,0,0,1-7,1.42c-.49-2.46-2-4.37-3.74-4.64a4.62,4.62,0,0,0-2.81.47c-1.55.76-2.16,2.94-2.2,4.22v.24A3.56,3.56,0,0,1,813.2,240.46Z"/><path d="M854.75,237.92h0a3.57,3.57,0,0,1-3.7-3.44v-.26c.09-3.47,1.77-8.29,6.2-10.45a11.81,11.81,0,0,1,7.07-1.11c4.67.74,8.53,4.87,9.63,10.28a3.58,3.58,0,1,1-7,1.41c-.49-2.46-2-4.36-3.74-4.64a4.7,4.7,0,0,0-2.81.47c-1.55.76-2.17,2.94-2.2,4.23v.2A3.58,3.58,0,0,1,854.75,237.92Z"/><path class="cls-7" d="M839.28,260.88l17.36-.65a17.38,17.38,0,0,1-34.73,1.29Z"/><path class="cls-4" d="M814.1,122.06h0a82.6,82.6,0,0,1,82.6,82.6v0a3.39,3.39,0,0,1-3.39,3.39H731.5a0,0,0,0,1,0,0v-3.39a82.6,82.6,0,0,1,82.6-82.6Z" transform="translate(-5.59 30.49) rotate(-2.14)"/><path d="M756.07,186.42l-.13-3.39a82.18,82.18,0,0,1,11.82-45.74A82.51,82.51,0,0,0,733,207.72l.13,3.38,23.79-.89Z"/><rect class="cls-8" x="705.92" y="40.27" width="25.8" height="21.73" rx="4.45" transform="translate(-1.41 26.86) rotate(-2.14)"/><rect class="cls-8" x="740.65" y="38.29" width="59.05" height="21.73" rx="4.45" transform="matrix(1, -0.04, 0.04, 1, -1.3, 28.77)"/><rect class="cls-8" x="728.36" y="71.27" width="37.33" height="21.73" rx="4.45" transform="translate(-2.54 27.93) rotate(-2.14)"/><rect class="cls-8" x="778.4" y="69.21" width="43.74" height="21.73" rx="4.45" transform="translate(-2.43 29.92) rotate(-2.14)"/><rect class="cls-8" x="830.56" y="67.64" width="23.93" height="21.73" rx="4.45" transform="translate(-2.34 31.49) rotate(-2.14)"/><rect class="cls-8" x="863.93" y="66.12" width="38.56" height="21.73" rx="4.45" transform="translate(-2.26 33.01) rotate(-2.14)"/><rect class="cls-8" x="912.84" y="64.74" width="14.55" height="21.73" rx="4.45" transform="translate(-2.18 34.39) rotate(-2.14)"/><rect class="cls-8" x="936.06" y="63.32" width="44.13" height="21.73" rx="4.45" transform="translate(-2.1 35.8) rotate(-2.14)"/><rect class="cls-8" x="813.91" y="36.05" width="37.33" height="21.73" rx="4.45" transform="translate(-1.17 31.1) rotate(-2.14)"/><rect class="cls-8" x="863.96" y="34" width="43.74" height="21.73" rx="4.45" transform="translate(-1.06 33.08) rotate(-2.14)"/><rect class="cls-8" x="918.91" y="32.33" width="21.73" height="21.73" rx="4.45" transform="translate(-0.96 34.72) rotate(-2.14)"/><rect class="cls-8" x="951.06" y="30.62" width="49.2" height="21.73" rx="4.45" transform="translate(-0.87 36.43) rotate(-2.14)"/><polygon class="cls-6" points="787.5 336.17 819.14 334.99 818.16 308.56 786.17 300.58 787.5 336.17"/><path class="cls-9" d="M764.2,323.89h96a38,38,0,0,1,38,38V392.4a0,0,0,0,1,0,0h-172a0,0,0,0,1,0,0V361.87A38,38,0,0,1,764.2,323.89Z" transform="translate(-12.8 30.56) rotate(-2.14)"/></g><rect class="cls-10" x="664.79" y="28.91" width="69.52" height="16.22" transform="translate(113.22 420.37) rotate(-36.21)"/><rect class="cls-11" x="978.74" y="17.53" width="57.95" height="16.22" transform="translate(285.93 -678.04) rotate(42.81)"/><rect class="cls-12" x="991.23" y="364.63" width="74.09" height="16.22" transform="translate(-38.71 613.22) rotate(-32.63)"/><rect class="cls-13" x="992.88" y="376.1" width="39.84" height="16.22" transform="translate(61.04 901.46) rotate(-49.3)"/><rect class="cls-14" x="673.24" y="385.02" width="64.8" height="16.22" transform="translate(898.54 1177.52) rotate(-132.94)"/><rect class="cls-15" x="691.32" y="381.67" width="35.86" height="16.22" transform="translate(453.95 1157.75) rotate(-100.4)"/><rect class="cls-16" x="670.99" y="31.15" width="51" height="16.22" transform="translate(5.62 -57.35) rotate(4.73)"/><rect class="cls-17" x="26.53" y="51.89" width="244.13" height="300.29" transform="translate(4.56 -3.27) rotate(1.28)"/><g class="cls-2"><path class="cls-18" d="M150.22,336.59a1.21,1.21,0,0,1-1.14-1.24l.39-17.48a1.18,1.18,0,0,1,.38-.84l13.7-13.11a1.19,1.19,0,0,1,.86-.33l1.76,0,.18-8.06-5-.11a1.23,1.23,0,0,1-.85-.37l-10-10.47a1.19,1.19,0,0,1-.33-.86l.12-5.69-6.25-6.54a1.21,1.21,0,0,1,0-1.71l7.68-7.35.19-8.24h0l.92-41.1-19.1-20a1.29,1.29,0,0,1-.34-.87l.85-38a1.2,1.2,0,0,1,.38-.85l30-28.73.59-26a1.21,1.21,0,0,1,1.23-1.19,1.2,1.2,0,0,1,1.18,1.24l-.59,26.53a1.23,1.23,0,0,1-.37.85L136.7,154.85l-.83,37,19.11,20a1.19,1.19,0,0,1,.33.86l-.92,41.11L205.24,307a1.21,1.21,0,0,1-.9,2l-7.65-.17-15,14.34a1.21,1.21,0,0,1-1.71,0l-13-13.54a1.23,1.23,0,0,1-.33-.87l.06-2.66-1.9,0-13,12.41-.38,17a1.21,1.21,0,0,1-1.24,1.18Zm18.91-28.31,11.77,12.3,14.48-13.84a1.16,1.16,0,0,1,.86-.34l5.23.12-47.14-49.3-.09,5.8a1.23,1.23,0,0,1-.35.83l-7,7.11L172,297.21a1.19,1.19,0,0,1,.33.86l-.15,6.88a1.21,1.21,0,0,1-1.24,1.18l-1.74,0Zm-.4-11-.14,6.35,1.18,0,.11-5.17Zm-16.12-14,9.32,9.74,2.78.07-12-12.59Z"/></g><g class="cls-2"><path class="cls-19" d="M219.34,148.1a1.2,1.2,0,0,0-1.71,0L209.36,156l-19.3-.43.11-5a1.19,1.19,0,0,0-.33-.86l-5.83-6.1.15-6.76,16.88.38a1.21,1.21,0,0,0,.05-2.42l-18.09-.4a1.19,1.19,0,0,0-1.23,1.18l-.19,8.46a1.23,1.23,0,0,0,.33.87l5.84,6.1-.11,4.53-14.56-.33a1.2,1.2,0,0,0-.87.34l-4.83,4.62-24-.54a1.19,1.19,0,0,0-.86.33l-5.71,5.47a1.18,1.18,0,0,0-.38.84l-.54,24.4-8.8,8.41a1.23,1.23,0,0,0-.37.85l-.6,26.9-20-.45a1.18,1.18,0,0,0-.85.33l-7.85,7.38a1.21,1.21,0,0,0-.06,1.71,1.25,1.25,0,0,0,.81.38,1.19,1.19,0,0,0,.9-.33l7.49-7,19.47.44,0,1.22L91.69,263.3l-17.94-.41a1.24,1.24,0,0,0-.86.34L62,273.62l-15.66-.35a1.21,1.21,0,0,0-.1,2.41h0l16.15.36a1.19,1.19,0,0,0,.86-.33L74.2,265.32l17.94.41a1.24,1.24,0,0,0,.86-.34l35.1-33.56a1.23,1.23,0,0,0,.37-.85l.68-30.54L138,192a1.17,1.17,0,0,0,.37-.84l.55-24.4,5-4.77,24,.53a1.19,1.19,0,0,0,.86-.33l4.83-4.62,36.28.81a1.19,1.19,0,0,0,.86-.33l8.64-8.27A1.2,1.2,0,0,0,219.34,148.1Z"/></g><g class="cls-2"><path class="cls-20" d="M149.51,262.82l.09-4.08h0l1-45.25a1.2,1.2,0,0,0-.32-.85L132,193a1.23,1.23,0,0,0-.86-.39l-17.6-.39a1.19,1.19,0,0,0-.86.33l-7.06,6.76-3.7-3.87.18-7.9,20.13-19.25a1.23,1.23,0,0,0,.37-.85l.25-11.38a1.19,1.19,0,0,0-.33-.86l-39.18-41a1.21,1.21,0,1,0-1.75,1.67l38.84,40.61-.24,10.38-20.13,19.25a1.21,1.21,0,0,0-.37.84l-.2,8.9a1.24,1.24,0,0,0,.34.87l4.53,4.74-.26,11.73-4,3.79-8.68-.19a1.19,1.19,0,0,0-.86.33L77.85,229.36l-23.65-.53a1.19,1.19,0,0,0-.86.33l-6.83,6.54a1.19,1.19,0,0,0,0,1.7,1.19,1.19,0,0,0,1.71,0l6.47-6.18,23.64.52a1.23,1.23,0,0,0,.87-.33l12.76-12.2,8.67.19a1.21,1.21,0,0,0,.87-.33l4.69-4.49a1.24,1.24,0,0,0,.38-.85l.27-12.23,7.21-6.89,16.58.37,17.55,18.9-.48,22.43-6.59,6.31-22.95-.52a1.2,1.2,0,0,0-.86.34l-14.9,14.25L80.29,233.65a1.21,1.21,0,0,0-.85-.37L69.08,233a1.24,1.24,0,0,0-.86.34l-3.66,3.49a1.21,1.21,0,0,0,1.67,1.75l3.3-3.15,9.36.21,22.55,23.59h0l22.14,23.16a1.22,1.22,0,0,0,1.71,0l21.82-20.87v.67L125,283.46a1.18,1.18,0,0,0-.38.84l-.23,10.28-8.07,7.71-79.62-1.78a1.21,1.21,0,0,0-.1,2.42h0l80.13,1.79a1.19,1.19,0,0,0,.86-.33l6.69-6.4-.16,6.93L99.6,328.36a1.2,1.2,0,0,0,0,1.71,1.17,1.17,0,0,0,.8.37,1.23,1.23,0,0,0,.91-.33l24.88-23.79a1.21,1.21,0,0,0,.37-.84l.46-20.62,22.16-21.19A1.19,1.19,0,0,0,149.51,262.82Zm-25,17.07L104,258.47l14.54-13.9,22.94.51a1.2,1.2,0,0,0,.87-.33l5.21-5-.39,18.42Z"/></g><g class="cls-2"><path class="cls-21" d="M233.68,243.1l-32.33-33.8a1.17,1.17,0,0,0-.84-.37l-14.58-.33-7.88-8.25.5-22.54a1.23,1.23,0,0,0-.33-.87l-3-3.1,6.22.14,8.05,8.41a1.18,1.18,0,0,0,.84.38l20,.45a1.22,1.22,0,0,0,1.24-1.19,1.19,1.19,0,0,0-1.19-1.23l-19.46-.44-8-8.41a1.22,1.22,0,0,0-.85-.38l-39.91-.89a1.18,1.18,0,0,0-.87.34l-9.37,9L120,179.71l.07-3.1a1.17,1.17,0,0,0-1.18-1.23,1.21,1.21,0,0,0-1.24,1.18l-.09,4.31a1.2,1.2,0,0,0,1.13,1.23h0l13.55.31a1.24,1.24,0,0,0,.86-.34l9.37-9,29.28.65,4.29,4.49-.5,22.55a1.19,1.19,0,0,0,.33.86l8.58,9a1.24,1.24,0,0,0,.85.38l14.57.32,32,33.44a1.23,1.23,0,0,0,.8.38,1.28,1.28,0,0,0,.91-.34A1.21,1.21,0,0,0,233.68,243.1Z"/></g><g class="cls-2"><path class="cls-22" d="M249.65,178.35a1.21,1.21,0,0,0-1.71,0L229.4,196l-35.76-.8-4.38-4.58a1.24,1.24,0,0,0-.85-.38L175.84,190a1.29,1.29,0,0,0-.87.34l-4.46,4.27-16.65-.38a1.24,1.24,0,0,0-.86.34l-6.92,6.61-19-19.84a1.24,1.24,0,0,0-.85-.38l-17.5-.39L94.84,166l0,0,0,0L80.47,151a1.12,1.12,0,0,0-.46-.48l-7.78-8.14.38-17.19a1.2,1.2,0,0,0-.35-.88l-6.48-6.58a1.21,1.21,0,0,0-1.73,1.7l6.13,6.21-.38,17.19a1.19,1.19,0,0,0,.33.86l6.31,6.6-22.36-.5a1.2,1.2,0,0,0-.87.33l-5.66,5.42a1.2,1.2,0,0,0,0,1.71,1.17,1.17,0,0,0,.8.37,1.21,1.21,0,0,0,.91-.33l5.3-5.07,24.29.54,13.43,14-13.71,13.1L73,179.77l-12.43-13a1.21,1.21,0,0,0-1.75,1.67L71.59,181.8a1.18,1.18,0,0,0,.81.37h0l6.53.14a1.21,1.21,0,0,0,.87-.33l14.07-13.46,13.45,14.08a1.21,1.21,0,0,0,.85.37l17.5.39,19.46,20.36a1.22,1.22,0,0,0,.8.37,1.19,1.19,0,0,0,.91-.34l7.43-7.1,15.18.34a.94.94,0,0,0,.09.12l3.92,4.1-.29,13a1.19,1.19,0,0,0,.33.86l4.08,4.27a1.17,1.17,0,0,0,.85.37l9.35.21-.4,17.79a1.21,1.21,0,0,0,1.14,1.23h0a1.22,1.22,0,0,0,1.24-1.19l.43-19a1.24,1.24,0,0,0-.34-.86,1.16,1.16,0,0,0-.85-.38L179,217.33l-3.38-3.54.29-13a1.2,1.2,0,0,0-.34-.86l-3.4-3.56,4.09-3.92,11.58.26,4.38,4.58a1.21,1.21,0,0,0,.84.37l36.77.83a1.24,1.24,0,0,0,.86-.34l18.9-18.07A1.21,1.21,0,0,0,249.65,178.35Z"/></g><rect class="cls-23" x="39.73" y="62.22" width="27.47" height="22.95" rx="5.57" transform="translate(1.65 -1.17) rotate(1.27)"/><rect class="cls-23" x="76.74" y="63.18" width="62.87" height="23.13" rx="5.57" transform="translate(1.68 -2.38) rotate(1.27)"/><rect class="cls-23" x="144.98" y="64.26" width="23.13" height="23.13" rx="5.57" transform="translate(1.72 -3.45) rotate(1.27)"/><rect class="cls-23" x="175.04" y="65.03" width="32.77" height="23.13" rx="5.57" transform="translate(1.74 -4.22) rotate(1.27)"/><rect class="cls-24" x="236.31" y="50.02" width="67.49" height="14.84" transform="translate(69.04 -131.83) rotate(31.27)"/><rect class="cls-25" x="236.38" y="48.96" width="52.38" height="14.84" transform="translate(10.51 -36.28) rotate(8.06)"/><rect class="cls-26" x="7.49" y="49.3" width="52.38" height="14.84" transform="translate(-0.86 0.52) rotate(-0.87)"/><rect class="cls-27" x="7.49" y="49.3" width="52.38" height="14.84" transform="translate(-26.25 84.28) rotate(-84)"/><rect class="cls-28" x="1.3" y="339.42" width="39.62" height="14.84" transform="translate(101.94 8.89) rotate(16.93)"/><rect class="cls-29" x="225.51" y="345.27" width="61.93" height="14.84" transform="translate(690.22 397.87) rotate(131.97)"/><rect class="cls-30" x="238.79" y="338.28" width="61.93" height="14.84" transform="translate(383.17 769.28) rotate(-157.02)"/><rect class="cls-31" x="235.74" y="343.35" width="45.19" height="14.84" transform="translate(-35.19 672.66) rotate(-101.27)"/><rect class="cls-32" x="1.3" y="339.42" width="39.62" height="14.84" transform="translate(-194.82 74.6) rotate(-34.94)"/></g></g></svg>