<svg xmlns="http://www.w3.org/2000/svg" xmlns:xlink="http://www.w3.org/1999/xlink" viewBox="0 0 1366.25 768"><defs><style>.cls-1{fill:#fff;}.cls-2{fill:#ffeec5;}.cls-2,.cls-5{opacity:0.5;}.cls-3{fill:url(#linear-gradient);}.cls-4{fill:url(#linear-gradient-2);}.cls-5{fill:url(#linear-gradient-3);}.cls-6{fill:#d1d66e;}.cls-15,.cls-16,.cls-17,.cls-18,.cls-19,.cls-20,.cls-21,.cls-22,.cls-28,.cls-7{opacity:0.8;}.cls-8{fill:url(#linear-gradient-4);}.cls-9{fill:#281a0c;}.cls-10{fill:#f4d0a4;}.cls-11{fill:#ddb180;}.cls-12{fill:#ff9292;}.cls-13,.cls-28{fill:#282828;}.cls-14{fill:#ff6;}.cls-15{fill:url(#linear-gradient-5);}.cls-16{fill:url(#linear-gradient-6);}.cls-17{fill:url(#linear-gradient-7);}.cls-18{fill:url(#linear-gradient-8);}.cls-19{fill:url(#linear-gradient-9);}.cls-20{fill:url(#linear-gradient-10);}.cls-21{fill:url(#linear-gradient-11);}.cls-22{fill:url(#Degradado_sin_nombre_6);}.cls-23{fill:#a1e8af;}.cls-24{fill:#cae5ff;}.cls-25{fill:#373d20;}.cls-26{fill:#da627d;}.cls-27{fill:#9a348e;}.cls-29{fill:url(#linear-gradient-12);}.cls-30{fill:url(#linear-gradient-13);}.cls-31{fill:url(#linear-gradient-14);}.cls-32{fill:url(#linear-gradient-15);}.cls-33{fill:url(#linear-gradient-16);}.cls-34{fill:url(#linear-gradient-17);}.cls-35{fill:url(#linear-gradient-18);}.cls-36{fill:url(#linear-gradient-19);}.cls-37{fill:url(#linear-gradient-20);}.cls-38{opacity:0.2;fill:url(#radial-gradient);}</style><linearGradient id="linear-gradient" y1="660.75" x2="1366" y2="660.75" gradientUnits="userSpaceOnUse"><stop offset="0" stop-color="#fff" stop-opacity="0"/><stop offset="0.06" stop-color="#fffefd" stop-opacity="0.02"/><stop offset="0.13" stop-color="#fefaf6" stop-opacity="0.09"/><stop offset="0.21" stop-color="#fdf3ea" stop-opacity="0.19"/><stop offset="0.29" stop-color="#fceada" stop-opacity="0.34"/><stop offset="0.38" stop-color="#fbdec5" stop-opacity="0.53"/><stop offset="0.47" stop-color="#f9cfad" stop-opacity="0.75"/><stop offset="0.56" stop-color="#f7c092"/><stop offset="0.63" stop-color="#f7c092" stop-opacity="0.86"/><stop offset="0.8" stop-color="#f7c092" stop-opacity="0.49"/><stop offset="1" stop-color="#f7c092" stop-opacity="0"/></linearGradient><linearGradient id="linear-gradient-2" x1="683.25" x2="683.25" y2="767.68" gradientUnits="userSpaceOnUse"><stop offset="0" stop-color="#fff" stop-opacity="0"/><stop offset="0.13" stop-color="#fffefe" stop-opacity="0.01"/><stop offset="0.22" stop-color="#fffcfa" stop-opacity="0.05"/><stop offset="0.31" stop-color="#fff8f4" stop-opacity="0.11"/><stop offset="0.38" stop-color="#fff3ea" stop-opacity="0.2"/><stop offset="0.46" stop-color="#ffeddf" stop-opacity="0.32"/><stop offset="0.53" stop-color="#ffe4d0" stop-opacity="0.46"/><stop offset="0.6" stop-color="#ffdbbf" stop-opacity="0.63"/><stop offset="0.66" stop-color="#ffd0ac" stop-opacity="0.82"/><stop offset="0.72" stop-color="#ffc599"/></linearGradient><linearGradient id="linear-gradient-3" x1="0.25" y1="383.84" x2="1366.25" y2="383.84" gradientUnits="userSpaceOnUse"><stop offset="0" stop-color="#fff" stop-opacity="0"/><stop offset="0.48" stop-color="#f7c092"/><stop offset="1" stop-color="#f7c092" stop-opacity="0"/></linearGradient><linearGradient id="linear-gradient-4" x1="999.89" y1="140.62" x2="1143.98" y2="570.48" gradientTransform="translate(3.14 -2.73)" gradientUnits="userSpaceOnUse"><stop offset="0" stop-color="#addeff" stop-opacity="0.5"/><stop offset="0.3" stop-color="#c4e7ff" stop-opacity="0.64"/><stop offset="0.97" stop-color="#fdfeff" stop-opacity="0.99"/><stop offset="1" stop-color="#fff"/></linearGradient><linearGradient id="linear-gradient-5" x1="840.35" y1="73.07" x2="891.08" y2="73.07" gradientTransform="translate(-310.25 -1.63) scale(1.37 1)" gradientUnits="userSpaceOnUse"><stop offset="0" stop-color="#fff" stop-opacity="0.5"/><stop offset="0.39" stop-color="#fff" stop-opacity="0.68"/><stop offset="1" stop-color="#fff"/></linearGradient><linearGradient id="linear-gradient-6" x1="1023.04" y1="235.59" x2="1073.77" y2="235.59" gradientTransform="translate(-13.33 -175.53) scale(1.14 1)" xlink:href="#linear-gradient-5"/><linearGradient id="linear-gradient-7" x1="1211.17" y1="471.63" x2="1261.9" y2="471.63" gradientTransform="translate(-601.1 -64.48) scale(1.46 1)" xlink:href="#linear-gradient-5"/><linearGradient id="linear-gradient-8" x1="1208.12" y1="466.83" x2="1258.85" y2="466.83" gradientTransform="translate(220.72 -48.2) scale(0.79 1)" xlink:href="#linear-gradient-5"/><linearGradient id="linear-gradient-9" x1="942.49" y1="240.79" x2="993.22" y2="240.79" gradientTransform="translate(-354.12 186.75) scale(1.28 1)" xlink:href="#linear-gradient-5"/><linearGradient id="linear-gradient-10" x1="941.38" y1="243.78" x2="992.11" y2="243.78" gradientTransform="translate(202.57 180.41) scale(0.71 1)" xlink:href="#linear-gradient-5"/><linearGradient id="linear-gradient-11" x1="846.81" y1="68.22" x2="897.54" y2="68.22" gradientTransform="translate(-3.77 5.45) scale(1.01 1)" xlink:href="#linear-gradient-5"/><linearGradient id="Degradado_sin_nombre_6" x1="131.22" y1="429.65" x2="131.95" y2="128.68" gradientTransform="matrix(0.86, 0, 0, 1, 211.82, -42.71)" gradientUnits="userSpaceOnUse"><stop offset="0" stop-color="#fff" stop-opacity="0.8"/><stop offset="1" stop-color="#fff"/></linearGradient><linearGradient id="linear-gradient-12" x1="401.94" y1="71.43" x2="448.36" y2="71.43" gradientTransform="translate(-171.46 20.42) scale(1.45 1)" xlink:href="#linear-gradient-5"/><linearGradient id="linear-gradient-13" x1="419.58" y1="109.22" x2="466" y2="109.22" gradientTransform="translate(-60.43 -18.42) scale(1.13 1)" xlink:href="#linear-gradient-5"/><linearGradient id="linear-gradient-14" x1="214.04" y1="159.62" x2="260.46" y2="159.62" gradientTransform="translate(-57.4 -68.49) scale(1.13 1)" xlink:href="#linear-gradient-5"/><linearGradient id="linear-gradient-15" x1="88.49" y1="233.16" x2="134.91" y2="233.16" gradientTransform="translate(84.25 -142.03) scale(1.13 1)" xlink:href="#linear-gradient-5"/><linearGradient id="linear-gradient-16" x1="-45.85" y1="123.31" x2="0.57" y2="123.31" gradientTransform="translate(217.05 257.94) scale(0.85 1)" xlink:href="#linear-gradient-5"/><linearGradient id="linear-gradient-17" x1="92.57" y1="7.51" x2="138.99" y2="7.51" gradientTransform="translate(278.62 379.6) scale(1.33 1)" xlink:href="#linear-gradient-5"/><linearGradient id="linear-gradient-18" x1="63.63" y1="108.68" x2="110.05" y2="108.68" gradientTransform="translate(330.51 271.44) scale(1.33 1)" xlink:href="#linear-gradient-5"/><linearGradient id="linear-gradient-19" x1="113.17" y1="146.77" x2="159.59" y2="146.77" gradientTransform="translate(302.18 238.41) scale(0.97 1)" xlink:href="#linear-gradient-5"/><linearGradient id="linear-gradient-20" x1="-72.1" y1="217.4" x2="-25.68" y2="217.4" gradientTransform="translate(239.45 163.85) scale(0.85 1)" xlink:href="#linear-gradient-5"/><radialGradient id="radial-gradient" cx="683.08" cy="384" r="961.28" gradientTransform="translate(0 166.06) scale(1 0.57)" gradientUnits="userSpaceOnUse"><stop offset="0" stop-color="#fff" stop-opacity="0"/><stop offset="1"/></radialGradient></defs><g id="Capa_2" data-name="Capa 2"><g id="Layer_2" data-name="Layer 2"><rect class="cls-1" x="0.16" width="1366.09" height="768"/><polygon class="cls-2" points="1366 766.93 0 766.93 0 554.57 1246 554.57 1366 766.93"/><polygon class="cls-3" points="1366 766.93 0 766.93 0 554.57 1246 554.57 1366 766.93"/><polygon class="cls-2" points="0.24 0 0.24 555.32 1246.24 555.32 1366.24 767.68 1366.24 0 0.24 0"/><polygon class="cls-4" points="0.24 0 0.24 555.32 1246.24 555.32 1366.24 767.68 1366.24 0 0.24 0"/><polygon class="cls-5" points="0.24 0 0.24 555.32 1246.24 555.32 1366.24 767.68 1366.24 0 0.24 0"/></g><g id="Layer_5" data-name="Layer 5"><path class="cls-6" d="M362.11,232.45l2.83,3a6.6,6.6,0,0,0,4.57,2h.06l36.77.82h.07a6.55,6.55,0,0,0,4.64-1.83L430,218.38a6.62,6.62,0,0,0,.21-9.35,6.69,6.69,0,0,0-4.71-2,6.56,6.56,0,0,0-4.64,1.84L403.89,225l-31.29-.7-1.55-1.63,15.77.36h.07a6.63,6.63,0,0,0,6.68-6.46,6.59,6.59,0,0,0-6.47-6.76l-17.22-.38-6.5-6.8a6.55,6.55,0,0,0-4.66-2l-9.52-.21,3.05-2.92,34,.76h.08a6.64,6.64,0,0,0,4.64-1.84l8.63-8.26a6.61,6.61,0,0,0-9.13-9.55L383.85,185l-11.67-.26a6.59,6.59,0,0,0-1.83-4.35l-3.43-3.58,10.6.23h.08a6.61,6.61,0,0,0,4.82-11.21,6.5,6.5,0,0,0-4.61-2l-18.08-.41h-.08a6.63,6.63,0,0,0-6.67,6.46l-.19,8.47a6.53,6.53,0,0,0,1.83,4.71l1.25,1.31-6.06-.13h-.08a6.55,6.55,0,0,0-4.64,1.83l-3.21,3.07-20.11-.45,25.32-24.21a6.56,6.56,0,0,0,2-4.62l.59-26.54a6.61,6.61,0,0,0-6.49-6.75h-.05a6.63,6.63,0,0,0-6.67,6.46L336,156.77,307.54,184a6.59,6.59,0,0,0-2,4.63l-.45,20.32-3.3-.07a6.93,6.93,0,0,0-.45-1l1.29-1.23a6.59,6.59,0,0,0,2-4.63l.25-11.38a6.56,6.56,0,0,0-1.83-4.72l-39.18-41a6.62,6.62,0,0,0-4.7-2,6.61,6.61,0,0,0-4.85,11.18l37.29,39-.14,5.9-7.29,7L275.62,197h0l-.29-.3-.27-.29h0L261.3,182a6.66,6.66,0,0,0-1.1-1.15l-5.92-6.19.34-15a6.63,6.63,0,0,0-1.91-4.79l-6.48-6.58a6.59,6.59,0,0,0-4.64-2h0a6.61,6.61,0,0,0-4.77,11.26l4.52,4.58L241,177.1a6.48,6.48,0,0,0,.23,1.92l-10.44-.24h-.07a6.56,6.56,0,0,0-4.64,1.84L220.42,186a6.62,6.62,0,0,0,4.18,11.38h.32a6.52,6.52,0,0,0,4.64-1.84l3.69-3.52,19.81.44,8.15,8.53L253,208.86l-1.06,0-10.88-11.37a6.6,6.6,0,0,0-9.35-.21,6.62,6.62,0,0,0-.2,9.34L244.3,220a6.57,6.57,0,0,0,4.38,2h.26l6.52.14h.08a6.62,6.62,0,0,0,4.64-1.84l10.16-9.72,4.28,4.48L273,216.65a6.56,6.56,0,0,0-2,4.62l-.2,8.91a6.57,6.57,0,0,0,1.83,4.71l3,3.13-.16,7.25-.74.71-6.44-.14h-.08a6.62,6.62,0,0,0-4.64,1.84l-11.14,10.65-21.41-.48h-.07a6.56,6.56,0,0,0-4.65,1.84l-6.83,6.53a6.59,6.59,0,0,0-2,4.63,6.63,6.63,0,0,0,6.22,6.74h.32a6.55,6.55,0,0,0,4.64-1.83l4.85-4.64,2.1.05a7.69,7.69,0,0,0-.07.85,6.57,6.57,0,0,0,1.83,4.71,6.62,6.62,0,0,0,9.35.21l1.67-1.6,4.89.1,14.63,15.31-1.58,1.51-15.71-.35h-.08a6.57,6.57,0,0,0-4.64,1.83l-9.24,8.84-13.42-.3H223a6.61,6.61,0,0,0-.46,13.21h.25l16.15.36H239a6.55,6.55,0,0,0,4.64-1.84l9.24-8.83,15.71.35h.07a6.55,6.55,0,0,0,4.64-1.83l3.56-3.41L295.75,320l-.15,6.62-4.83,4.63-77.4-1.73h-.07a6.61,6.61,0,0,0-.47,13.2h.25l74.52,1.67-15.13,14.47a6.61,6.61,0,0,0,4.18,11.37H277a6.52,6.52,0,0,0,4.64-1.84l24.88-23.78a6.59,6.59,0,0,0,2-4.63l.41-18.38L319,312l2.47,2.58-.07,3.46a6.57,6.57,0,0,0,1.83,4.72l10,10.46a6.5,6.5,0,0,0,2.67,1.7l-13.19,12.61a6.56,6.56,0,0,0-2,4.62l-.39,17.49a6.58,6.58,0,0,0,6.21,6.74h.33a6.64,6.64,0,0,0,6.68-6.46l.33-14.74,6.81-6.52,12,12.6a6.61,6.61,0,0,0,9.34.21l13.38-12.8,5.41.12h.08a6.61,6.61,0,0,0,4.85-11.17l-49.3-51.55.87-38.87a6.56,6.56,0,0,0-1.83-4.72l-4.16-4.35,1.7-1.63,10.69.24.94,1-.24,10.77a6.54,6.54,0,0,0,1.83,4.72l4.08,4.27a6.6,6.6,0,0,0,4.6,2l4,.09L358.63,272a6.59,6.59,0,0,0,6.21,6.75h.33a6.63,6.63,0,0,0,6.68-6.46l.42-19a6.72,6.72,0,0,0-.35-2.28l2.28.06,30.43,31.82a6.59,6.59,0,0,0,4.39,2h.32a6.61,6.61,0,0,0,4.85-11.18L381.86,240a6.61,6.61,0,0,0-4.65-2l-12.31-.27-4.79-5v-.24ZM360.23,227h0l4.1.09ZM343.37,340.48v0Zm-4.83-13,2.78.06h0l-2.78-.06-9.32-9.74Zm2.16,10.59A1.07,1.07,0,0,1,341,338h0l1.76,0h0L341,338A1.2,1.2,0,0,0,340.7,338.06Zm-.54.28a1.08,1.08,0,0,1,.39-.25A1.08,1.08,0,0,0,340.16,338.34ZM324.65,306.6h0l23.93,25a1.2,1.2,0,0,1,.34.86l-.16,6.88a1.19,1.19,0,0,1-.1.46,1.19,1.19,0,0,0,.1-.46l.16-6.88a1.2,1.2,0,0,0-.34-.86ZM296.93,204.54h0l1.92-1.84Zm55.55,123.35L331,305.43l2.87-2.91,33.77,35.31-10,9.53-4.45-4.65a6.43,6.43,0,0,0,.93-3.22l.16-6.88A6.62,6.62,0,0,0,352.48,327.89ZM282.76,249a1.1,1.1,0,0,0,.27-.38,1.28,1.28,0,0,0,.1-.47l.28-12.22,7.21-6.9-7.21,6.9-.28,12.22a1.28,1.28,0,0,1-.1.47,1.1,1.1,0,0,1-.27.38l-4.69,4.49a1.12,1.12,0,0,1-.4.25,1.12,1.12,0,0,0,.4-.25Zm16.7,22.23,5.25-5a1.21,1.21,0,0,0,.37-.84l.66-29.61h0l-.66,29.61a1.21,1.21,0,0,1-.37.84l-5.25,5Zm-16.67-10.5a.81.81,0,0,0-.31.05,1,1,0,0,1,.3-.05Zm1.28-36.45,1.57-1.5h.22l-.28.25-1.51,1.44Zm6.09,2.32h0l12.59.28h0l-12.59-.28a1.07,1.07,0,0,0-.31.06A1.07,1.07,0,0,1,290.16,226.63Zm-.45.09a1.12,1.12,0,0,0-.4.25A1.12,1.12,0,0,1,289.71,226.72Zm8.24,7.91-.47,21.05-13.55-.3,2.56-2.45a6.52,6.52,0,0,0,2-4.62l.23-10,4-3.8Zm-15.62,26.21a1,1,0,0,0-.38.24A1,1,0,0,1,282.33,260.84Zm-7.49,9.71a1.32,1.32,0,0,0,.34,0,1.51,1.51,0,0,1-.28.05h-.06a1.05,1.05,0,0,1-.35-.08A1.05,1.05,0,0,0,274.84,270.55Zm.9-.32,7.49-7.05,19.47.44-19.47-.44-7.49,7.05a1.33,1.33,0,0,1-.41.25A1.33,1.33,0,0,0,275.74,270.23Zm21.55,14.2,20.71.47h.57l-.11,5.35-17.18,16.42-13-13.6Zm20.83-4.93a1.2,1.2,0,0,0,.32-.06,1.07,1.07,0,0,1-.3.06Zm.47-.08a1.31,1.31,0,0,0,.4-.26A1.31,1.31,0,0,1,318.59,279.42Zm.33-11-3.36,3.21-8.47-.19,1.35-1.28a6.59,6.59,0,0,0,2-4.63l.54-24,8.28,8.93Zm-48.53-3.88a6.61,6.61,0,0,0,4.13,11.41h.32a6.57,6.57,0,0,0,4.6-1.79l5.88-5.53,5.45.12-13.45,12.86-14.43-15.09,7.75-7.41,5.38.12Zm31,52.63a1.07,1.07,0,0,1-.3.06h0A1.13,1.13,0,0,0,301.36,317.16Zm.53-.27a1,1,0,0,1-.38.24A1,1,0,0,0,301.89,316.89Zm21-88.93-2.52-2.64.26-11.7.68-.65,24.8.56,1.2,1.25-.15,6.75-2.13,2-14.41-.32h-.08a6.59,6.59,0,0,0-4.64,1.83Zm32-16.6a1.19,1.19,0,0,1,.33.86l-.15,6.85h0l.15-6.85A1.19,1.19,0,0,0,354.83,211.36Zm5.59,7.3.52.55-.53,0ZM280,220.71l-1.3,1.24v0l1.3-1.24Zm-3.71.69v0s0-.07,0-.1S276.32,221.36,276.32,221.4Zm.88,32.46a1.28,1.28,0,0,0,.33-.06,1.21,1.21,0,0,1-.31.06h0l-8.68-.2Zm-31.52,13.6h0l10.36.23a1.18,1.18,0,0,1,.62.21,1.18,1.18,0,0,0-.62-.21l-10.36-.23a1.77,1.77,0,0,0-.32.05A1.54,1.54,0,0,1,245.68,267.46Zm-.46.08a1.24,1.24,0,0,0-.39.25A1.24,1.24,0,0,1,245.22,267.54Zm9.68-1.34a1.13,1.13,0,0,0,.32-.06,1.07,1.07,0,0,1-.31.06Zm.47-.08a1.27,1.27,0,0,0,.39-.26A1.27,1.27,0,0,1,255.37,266.12Zm46.19,51.75,13.38-12.8h0l-13.38,12.8a1.21,1.21,0,0,0-.28.39A1.21,1.21,0,0,1,301.56,317.87Zm44.93,15.07-.12,5.16h0Zm2.08,7a.88.88,0,0,1-.18.25A.88.88,0,0,0,348.57,340Zm-.33.35a1.5,1.5,0,0,1-.23.15A1.5,1.5,0,0,0,348.24,340.31Zm-.43.19a1.17,1.17,0,0,1-.27.05h0A1.26,1.26,0,0,0,347.81,340.5Zm-2,0-.05,2.18L357.51,355h0l-11.77-12.31Zm26.2.64a1.18,1.18,0,0,1,.4-.25,1.18,1.18,0,0,0-.4.25l-7.33,7Zm.55-.28a1.59,1.59,0,0,1,.3-.06h0l5.23.12-5.23-.12A1.07,1.07,0,0,0,372.54,340.87ZM330.46,228.65h0L347,229h0l-16.5-.37a1.19,1.19,0,0,0-.32,0A1.54,1.54,0,0,1,330.46,228.65Zm-.46.08a1.24,1.24,0,0,0-.39.25A1.24,1.24,0,0,1,330,228.73Zm22.25,19.47,3.38,3.54-3.38-3.54Zm2.58-21.31Zm51.63,6-36.77-.82,36.77.82a1.2,1.2,0,0,0,.32-.06,1.07,1.07,0,0,1-.31.06Zm19.76-18.4-18.9,18.06a1.31,1.31,0,0,1-.4.26,1.31,1.31,0,0,0,.4-.26l18.9-18.06a1.24,1.24,0,0,0,.37-.85A1.23,1.23,0,0,1,426.22,214.48Zm.29-1.31a1.25,1.25,0,0,0-.26-.4h0A1.25,1.25,0,0,1,426.51,213.17Zm-.65-.68a.9.9,0,0,0-.16,0A.9.9,0,0,1,425.86,212.49Zm-.46-.1a1.07,1.07,0,0,0-.3.06,1,1,0,0,1,.29-.06Zm-.85.33a1.28,1.28,0,0,1,.4-.25A1.28,1.28,0,0,0,424.55,212.72ZM406,230.45l9.38-9-9.38,9-17.88-.4Zm-19.07-12.82a1.26,1.26,0,0,0,.28,0,1.17,1.17,0,0,1-.27,0Zm.47-.09a1.28,1.28,0,0,0,.25-.15A1.28,1.28,0,0,1,387.41,217.54Zm.39-.25A.88.88,0,0,0,388,217,.88.88,0,0,1,387.8,217.29Zm.27-.38a1.19,1.19,0,0,0,.1-.46A1.19,1.19,0,0,1,388.07,216.91Zm-28.59-10.55a1.17,1.17,0,0,0-.85-.37l-37.84-.85h0l37.84.85A1.17,1.17,0,0,1,359.48,206.36Zm-15-9.39a1.07,1.07,0,0,0,.31-.06,1.07,1.07,0,0,1-.3.06Zm42-4.14L350.13,192l-4.83,4.62a1.31,1.31,0,0,1-.4.26,1.31,1.31,0,0,0,.4-.26l4.83-4.62,36.28.82a1.13,1.13,0,0,0,.32-.06,1.07,1.07,0,0,1-.31.06ZM366.67,190h0l.11-5a1.19,1.19,0,0,0-.33-.86,1.19,1.19,0,0,1,.33.86Zm20.21,2.77a1.08,1.08,0,0,0,.39-.25A1.08,1.08,0,0,1,386.88,192.74Zm8.67-10.5a.76.76,0,0,0-.16,0A.76.76,0,0,1,395.55,182.24Zm-.45-.09a1,1,0,0,0-.3,0,.93.93,0,0,1,.29,0Zm-.46.08a1.22,1.22,0,0,0-.4.25A1.22,1.22,0,0,1,394.64,182.23Zm-17-10.63a1.47,1.47,0,0,0,.29,0,1.28,1.28,0,0,1-.27,0Zm.48-.09a1.3,1.3,0,0,0,.23-.15A1.3,1.3,0,0,1,378.12,171.51Zm.39-.25a1.6,1.6,0,0,0,.18-.25A1.6,1.6,0,0,1,378.51,171.26Zm.27-.38a1.2,1.2,0,0,0,.1-.47A1.2,1.2,0,0,1,378.78,170.88Zm-19.17-2.11,18.09.41a1.2,1.2,0,0,1,.47.1,1.2,1.2,0,0,0-.47-.1l-18.09-.41a1.26,1.26,0,0,0-.28,0,1.17,1.17,0,0,1,.27,0Zm-.48.09a1.5,1.5,0,0,0-.23.15A1.5,1.5,0,0,1,359.13,168.86Zm-.38.25a.88.88,0,0,0-.18.25A.88.88,0,0,1,358.75,169.11Zm-.38.84a1.41,1.41,0,0,1,.11-.46,1.41,1.41,0,0,0-.11.46l-.19,8.47Zm-8.69,19.63,14.57.33-14.57-.33a1.13,1.13,0,0,0-.31.06,1.59,1.59,0,0,1,.3-.06Zm-.46.09a1.28,1.28,0,0,0-.4.25A1.28,1.28,0,0,1,349.22,189.67ZM344,194.54h0L320,194a1.2,1.2,0,0,0-.32.06A1.07,1.07,0,0,1,320,194h0Zm-24.83-.2a1.08,1.08,0,0,1,.39-.25A1.08,1.08,0,0,0,319.16,194.34Zm24.57-34.66a1.21,1.21,0,0,1-.37.85l-30.05,28.74-.08,3.26h0l.08-3.26,30.05-28.74a1.21,1.21,0,0,0,.37-.85l.59-26.53Zm-.59-27.76a1.18,1.18,0,0,1,.85.37,1.18,1.18,0,0,0-.85-.37,1.26,1.26,0,0,0-.28.05,1.17,1.17,0,0,1,.27-.05Zm-.48.09a1,1,0,0,0-.23.15A1,1,0,0,1,342.66,132Zm-.38.25a1.37,1.37,0,0,0-.18.24A1.37,1.37,0,0,1,342.28,132.26Zm-.27.37a1.24,1.24,0,0,0-.1.47A1.24,1.24,0,0,1,342,132.63Zm-42.86,57-39.18-41h0Zm-39.58-41.24-.15,0Zm-.45-.1a1.54,1.54,0,0,0-.31,0,1.57,1.57,0,0,1,.3,0Zm-.85.33a1.18,1.18,0,0,1,.39-.25A1.18,1.18,0,0,0,258.27,148.6Zm-.2,1.47a1.17,1.17,0,0,1-.18-.62A1.17,1.17,0,0,0,258.07,150.07Zm13.36,50.33,0,0,8.82,9.23h0l-8.82-9.23,0,0,0,0Zm-22.21-40.82-.38,17.2,7.78,8.13-7.78-8.13.38-17.2a1.21,1.21,0,0,0-.35-.88A1.21,1.21,0,0,1,249.22,159.58Zm-2.48,18.51a1.41,1.41,0,0,1-.25-.4,1.41,1.41,0,0,0,.25.4l6.31,6.59Zm-4.91-26.27-.3-.06h0C241.64,151.77,241.73,151.8,241.83,151.82Zm.55.3a1.27,1.27,0,0,0-.39-.26A1.27,1.27,0,0,1,242.38,152.12Zm-1.14-.3a.9.9,0,0,0-.16,0A.9.9,0,0,1,241.24,151.82Zm-.93,1.14a1.22,1.22,0,0,0,.09.46A1.22,1.22,0,0,1,240.31,153Zm-9.63,31.22a1.07,1.07,0,0,0-.31.06,1.07,1.07,0,0,1,.3-.06Zm-.46.09a1.12,1.12,0,0,0-.4.25A1.12,1.12,0,0,1,230.22,184.27Zm-5.3,7.75a1.3,1.3,0,0,1-.43-.11,1.3,1.3,0,0,0,.43.11,2,2,0,0,0,.34-.05,1.51,1.51,0,0,1-.28.05Zm30.49-4.86-24.28-.55-5.3,5.07a1.17,1.17,0,0,1-.42.26,1.17,1.17,0,0,0,.42-.26l5.3-5.07,24.28.55,13.43,14h0Zm-5.81,27,5.54.13,6.85-6.56-6.85,6.56-5.54-.13-12.42-13Zm-12.82-13.27a.8.8,0,0,0-.15,0A.8.8,0,0,1,236.78,200.91Zm-.46-.09a.79.79,0,0,0-.3.05,1,1,0,0,1,.29-.06Zm-.45.07a1.15,1.15,0,0,0-.4.26A1.15,1.15,0,0,1,235.87,200.89Zm19.71,15.85a1.28,1.28,0,0,0,.33-.06,1.21,1.21,0,0,1-.31.06Zm.87-.34a1.12,1.12,0,0,1-.4.25,1.12,1.12,0,0,0,.4-.25L270.51,203h0Zm11.63,34.83h0a1.2,1.2,0,0,0-.32.06,1.07,1.07,0,0,1,.3-.06Zm-.85.33a1.17,1.17,0,0,1,.38-.24A1.17,1.17,0,0,0,267.23,251.56Zm-36.42,11.68a1.2,1.2,0,0,0-.32.06,1.07,1.07,0,0,1,.31-.06Zm-.47.08a1.27,1.27,0,0,0-.39.26A1.27,1.27,0,0,1,230.34,263.32Zm-7.6,7.64a1.16,1.16,0,0,0,.08.45A1.16,1.16,0,0,1,222.74,271Zm.34.86a1.24,1.24,0,0,0,.58.32A1.24,1.24,0,0,1,223.08,271.82Zm.8.37a1,1,0,0,0,.34-.05,1.51,1.51,0,0,1-.28.05Zm.91-.33a1.3,1.3,0,0,1-.42.25,1.3,1.3,0,0,0,.42-.25l6.47-6.19h0Zm16.74,1.41.16,0Zm.46.1a1.57,1.57,0,0,0,.3-.05,1.57,1.57,0,0,1-.3.05Zm4.14-3.48L242.84,273a1.41,1.41,0,0,1-.4.25,1.22,1.22,0,0,0,.4-.25l3.29-3.15,9.37.21,11.27,11.79L255.5,270.1Zm4.23,27.42a1.77,1.77,0,0,0-.32.05,1.57,1.57,0,0,1,.3-.05Zm-.85.33a1.19,1.19,0,0,1,.38-.25A1.19,1.19,0,0,0,249.51,297.64Zm-26.53,10a1.47,1.47,0,0,0-.29.05,1.28,1.28,0,0,1,.27-.05Zm-.48.09a.87.87,0,0,0-.24.15A.87.87,0,0,1,222.5,307.77Zm-.39.25a1.1,1.1,0,0,0-.17.25A1.1,1.1,0,0,1,222.11,308Zm-.26.38a1.2,1.2,0,0,0-.11.46A1.2,1.2,0,0,1,221.85,308.4Zm17.23,2.06h0a1.2,1.2,0,0,0,.32-.06,1.07,1.07,0,0,1-.31.06Zm.47-.08a1.27,1.27,0,0,0,.39-.26A1.27,1.27,0,0,1,239.55,310.38Zm29.2-10.24a1.07,1.07,0,0,0,.31-.06,1.07,1.07,0,0,1-.3.06Zm.85-.33a1.14,1.14,0,0,1-.39.25A1.14,1.14,0,0,0,269.6,299.81Zm-56.35,35.12a.87.87,0,0,0-.28.05.81.81,0,0,1,.27-.05Zm-.47.08a1.94,1.94,0,0,0-.24.15A1.94,1.94,0,0,1,212.78,335Zm-.39.25a1.1,1.1,0,0,0-.17.25A1.1,1.1,0,0,1,212.39,335.26Zm-.27.38a1.17,1.17,0,0,0-.09.42A1.17,1.17,0,0,1,212.12,335.64Zm64.08,27.14,24.52-23.45.16-6.92-6.69,6.39a1.12,1.12,0,0,1-.4.25,1.12,1.12,0,0,0,.4-.25l6.69-6.39-.16,6.92L276.2,362.78a1.14,1.14,0,0,0-.27.39A1.14,1.14,0,0,1,276.2,362.78Zm17.13-23.64a1.2,1.2,0,0,0,.32-.06,1.21,1.21,0,0,1-.31.06ZM277,364.86a1,1,0,0,0,.34-.05,1.51,1.51,0,0,1-.28.05Zm26.62-45.59-.46,20.62a1.22,1.22,0,0,1-.38.85l-24.87,23.79a1.3,1.3,0,0,1-.42.25,1.3,1.3,0,0,0,.42-.25l24.87-23.79a1.22,1.22,0,0,0,.38-.85l.46-20.62,12-11.42h0ZM326.87,371a.87.87,0,0,0,.28-.05.8.8,0,0,1-.26.05Zm.48-.08a1.3,1.3,0,0,0,.23-.15A1.3,1.3,0,0,1,327.35,370.92Zm.39-.25a1.1,1.1,0,0,0,.17-.25A1.1,1.1,0,0,1,327.74,370.67Zm.26-.38a1.2,1.2,0,0,0,.11-.47A1.2,1.2,0,0,1,328,370.29Zm29-12.47a.9.9,0,0,0,.16,0A.9.9,0,0,1,357,357.82Zm.46.1a1.07,1.07,0,0,0,.3-.06,1.07,1.07,0,0,1-.3.06Zm.45-.08a1.15,1.15,0,0,0,.4-.26A1.15,1.15,0,0,1,357.9,357.84Zm23-14.43a.78.78,0,0,0,.22,0,.68.68,0,0,1-.2,0Zm.36,0a1.11,1.11,0,0,0,.19-.09A1.11,1.11,0,0,1,381.3,343.37Zm.32-.15a.84.84,0,0,0,.18-.15A.84.84,0,0,1,381.62,343.22Zm.27-.23a1.28,1.28,0,0,0,.19-.3A1.28,1.28,0,0,1,381.89,343Zm-.05-1.62L331.7,288.93h0ZM327.6,234.25l3.32-3.17-3.32,3.17Zm37.61,39.13a1.47,1.47,0,0,0,.29-.05,1.28,1.28,0,0,1-.27.05Zm.72-.24a.87.87,0,0,1-.24.15A.87.87,0,0,0,365.93,273.14Zm.15-.1a1.6,1.6,0,0,0,.18-.25A1.6,1.6,0,0,1,366.08,273Zm.37-.84a1.24,1.24,0,0,1-.11.47,1.24,1.24,0,0,0,.11-.47l.42-19Zm42.89,7.36a1,1,0,0,0,.33-.05,1.28,1.28,0,0,1-.27.05Zm.49-.08a1.3,1.3,0,0,0,.42-.25A1.3,1.3,0,0,1,409.83,279.48Zm.45-2a1.25,1.25,0,0,1,.26.4,1.25,1.25,0,0,0-.26-.4L378,243.71a1.36,1.36,0,0,0-.39-.27,1.36,1.36,0,0,1,.39.27Zm-32.87-34.11a.94.94,0,0,0-.3-.07h0A1,1,0,0,1,377.41,243.41Z"/><g class="cls-7"><rect class="cls-8" x="874.31" y="56.09" width="326.21" height="368.81" transform="translate(-8.25 38.88) rotate(-2.14)"/><path class="cls-9" d="M912.53,242.93H1048.2a0,0,0,0,1,0,0v82.73a67.84,67.84,0,0,1-67.84,67.84h0a67.84,67.84,0,0,1-67.84-67.84V242.93a0,0,0,0,1,0,0Z" transform="translate(-11.19 36.8) rotate(-2.14)"/><path d="M1006.08,368.76h0a67.84,67.84,0,0,1-70.32-65.26l-2.2-58.87-23.79.88,3.08,82.67a67.84,67.84,0,0,0,70.32,65.26h0A67.77,67.77,0,0,0,1040.26,358,67.47,67.47,0,0,1,1006.08,368.76Z"/><path class="cls-10" d="M926.92,196.37l2.19,58.53a15.69,15.69,0,0,0-3.3,1.88c-9.82,7.39-9.27,25.5.93,33.79a20.79,20.79,0,0,0,5.44,3.13,67.85,67.85,0,0,0,68.15,50.6h0A67.84,67.84,0,0,0,1065.59,274l-3.09-62.67Z"/><path class="cls-11" d="M1009,340.94a67.85,67.85,0,0,1-68.15-50.59,20.76,20.76,0,0,1-5.43-3.14c-10.2-8.29-10.76-26.4-.93-33.79a15.81,15.81,0,0,1,3.29-1.88L935.71,196l-8.79.33,2.19,58.53a15.69,15.69,0,0,0-3.3,1.88c-9.82,7.39-9.27,25.5.93,33.79a20.79,20.79,0,0,0,5.44,3.13,67.88,67.88,0,0,0,94.48,44.22A68,68,0,0,1,1009,340.94Z"/><path d="M989.81,274.88h0a3.57,3.57,0,0,1-3.7-3.44v-.27c.09-3.46,1.77-8.28,6.2-10.44a11.81,11.81,0,0,1,7.07-1.11c4.67.74,8.53,4.87,9.63,10.28a3.58,3.58,0,1,1-7,1.41c-.49-2.46-2-4.36-3.74-4.63a4.61,4.61,0,0,0-2.81.47c-1.55.76-2.17,2.94-2.2,4.22v.24A3.58,3.58,0,0,1,989.81,274.88Z"/><path d="M1031.36,272.33h0a3.57,3.57,0,0,1-3.7-3.43,2.43,2.43,0,0,1,0-.27c.09-3.46,1.77-8.28,6.2-10.45a11.81,11.81,0,0,1,7.07-1.11c4.67.75,8.53,4.88,9.62,10.28a3.57,3.57,0,0,1-7,1.42c-.49-2.46-2-4.37-3.74-4.64a4.63,4.63,0,0,0-2.81.47c-1.55.76-2.17,2.94-2.2,4.22v.2A3.57,3.57,0,0,1,1031.36,272.33Z"/><path class="cls-12" d="M1015.88,295.29l17.36-.65a17.37,17.37,0,0,1-34.72,1.3Z"/><path class="cls-9" d="M990.71,156.47h0a82.6,82.6,0,0,1,82.6,82.6v0a3.39,3.39,0,0,1-3.39,3.39H908.11a0,0,0,0,1,0,0v-3.39a82.6,82.6,0,0,1,82.6-82.6Z" transform="translate(-6.75 37.11) rotate(-2.14)"/><path d="M932.67,220.83l-.12-3.38a82.15,82.15,0,0,1,11.82-45.75,82.52,82.52,0,0,0-34.73,70.43l.13,3.38,23.79-.88Z"/><rect class="cls-13" x="882.52" y="74.68" width="25.8" height="21.73" rx="4.45" transform="translate(-2.57 33.47) rotate(-2.14)"/><rect class="cls-13" x="917.26" y="72.7" width="59.05" height="21.73" rx="4.45" transform="translate(-2.46 35.39) rotate(-2.14)"/><rect class="cls-13" x="904.96" y="105.68" width="37.33" height="21.73" rx="4.45" transform="translate(-3.71 34.55) rotate(-2.14)"/><rect class="cls-13" x="955.01" y="103.63" width="43.74" height="21.73" rx="4.45" transform="translate(-3.59 36.53) rotate(-2.14)"/><rect class="cls-13" x="1007.17" y="102.05" width="23.93" height="21.73" rx="4.45" transform="translate(-3.5 38.11) rotate(-2.14)"/><rect class="cls-13" x="1040.54" y="100.53" width="38.56" height="21.73" rx="4.45" transform="matrix(1, -0.04, 0.04, 1, -3.42, 39.62)"/><rect class="cls-13" x="1089.45" y="99.15" width="14.55" height="21.73" rx="4.45" transform="translate(-3.34 41) rotate(-2.14)"/><rect class="cls-13" x="1112.67" y="97.73" width="44.13" height="21.73" rx="4.45" transform="matrix(1, -0.04, 0.04, 1, -3.26, 42.42)"/><rect class="cls-13" x="990.52" y="70.47" width="37.33" height="21.73" rx="4.45" transform="translate(-2.33 37.71) rotate(-2.14)"/><rect class="cls-13" x="1040.56" y="68.42" width="43.74" height="21.73" rx="4.45" transform="translate(-2.22 39.7) rotate(-2.14)"/><rect class="cls-13" x="1095.52" y="66.74" width="21.73" height="21.73" rx="4.45" transform="translate(-2.13 41.34) rotate(-2.14)"/><rect class="cls-13" x="1127.67" y="65.03" width="49.2" height="21.73" rx="4.45" transform="translate(-2.03 43.05) rotate(-2.14)"/><polygon class="cls-11" points="964.11 370.58 995.75 369.4 994.76 342.97 962.78 334.99 964.11 370.58"/><path class="cls-14" d="M940.81,358.31h96a38,38,0,0,1,38,38v30.53a0,0,0,0,1,0,0h-172a0,0,0,0,1,0,0V396.29A38,38,0,0,1,940.81,358.31Z" transform="translate(-13.96 37.17) rotate(-2.14)"/></g><rect class="cls-15" x="841.4" y="63.32" width="69.52" height="16.22" transform="translate(126.99 531.34) rotate(-36.21)"/><rect class="cls-16" x="1155.34" y="51.95" width="57.95" height="16.22" transform="translate(356.38 -788.9) rotate(42.81)"/><rect class="cls-17" x="1167.84" y="399.04" width="74.09" height="16.22" transform="translate(-29.4 713.87) rotate(-32.63)"/><rect class="cls-18" x="1169.49" y="410.52" width="39.84" height="16.22" transform="translate(96.39 1047.32) rotate(-49.3)"/><rect class="cls-19" x="849.85" y="419.43" width="64.8" height="16.22" transform="translate(1170.27 1364.67) rotate(-132.94)"/><rect class="cls-20" x="867.93" y="416.08" width="35.86" height="16.22" transform="translate(628.6 1372.08) rotate(-100.4)"/><rect class="cls-21" x="847.6" y="65.56" width="51" height="16.22" transform="translate(9.06 -71.81) rotate(4.73)"/><rect class="cls-22" x="203.14" y="86.3" width="244.13" height="300.29" transform="translate(5.37 -7.22) rotate(1.28)"/><g class="cls-7"><path class="cls-23" d="M326.83,371a1.21,1.21,0,0,1-1.14-1.23l.39-17.48a1.23,1.23,0,0,1,.37-.85l13.71-13.1A1.24,1.24,0,0,1,341,338l1.76,0L343,330l-5-.12a1.18,1.18,0,0,1-.84-.37l-10-10.47a1.24,1.24,0,0,1-.34-.86l.13-5.69-6.25-6.54a1.2,1.2,0,0,1,0-1.71l7.68-7.34.18-8.24h0l.92-41.11-19.1-20a1.16,1.16,0,0,1-.34-.86l.85-38a1.25,1.25,0,0,1,.37-.85l30.05-28.73.59-26a1.21,1.21,0,0,1,2.41.05l-.59,26.53a1.21,1.21,0,0,1-.37.85l-30.05,28.74-.83,37,19.11,20a1.2,1.2,0,0,1,.33.87L331,288.2l50.84,53.17a1.22,1.22,0,0,1,.24,1.32,1.2,1.2,0,0,1-1.14.72l-7.64-.17-15,14.34a1.2,1.2,0,0,1-1.71,0L343.64,344a1.19,1.19,0,0,1-.33-.86l.06-2.66-1.9-.05-13,12.41-.38,17a1.21,1.21,0,0,1-1.24,1.18Zm18.91-28.31L357.51,355,372,341.15a1.24,1.24,0,0,1,.86-.34l5.23.12-47.14-49.29-.1,5.8a1.2,1.2,0,0,1-.35.83l-7,7.1,25.1,26.26a1.2,1.2,0,0,1,.34.86l-.16,6.88a1.21,1.21,0,0,1-1.23,1.18l-1.74,0Zm-.4-11-.15,6.35,1.18,0,.12-5.16Zm-16.12-14,9.32,9.74,2.78.06-12-12.59Z"/></g><g class="cls-7"><path class="cls-24" d="M396,182.52a1.21,1.21,0,0,0-1.71,0L386,190.4,366.67,190l.11-5a1.19,1.19,0,0,0-.33-.86l-5.84-6.1.15-6.75,16.88.38a1.22,1.22,0,0,0,1.24-1.19,1.2,1.2,0,0,0-1.18-1.23l-18.09-.41a1.22,1.22,0,0,0-1.24,1.18l-.19,8.47a1.24,1.24,0,0,0,.34.86l5.83,6.1-.1,4.53-14.57-.33a1.24,1.24,0,0,0-.86.34L344,194.54,320,194a1.24,1.24,0,0,0-.86.34l-5.72,5.46a1.23,1.23,0,0,0-.37.85l-.55,24.4-8.79,8.41a1.17,1.17,0,0,0-.37.84l-.61,26.9-20-.44a1.2,1.2,0,0,0-.85.32l-7.85,7.38a1.21,1.21,0,0,0-.06,1.71,1.15,1.15,0,0,0,.81.38,1.22,1.22,0,0,0,.9-.32l7.49-7.05,19.47.44,0,1.22L268.3,297.71l-17.94-.4a1.23,1.23,0,0,0-.87.33L238.63,308,223,307.68a1.21,1.21,0,0,0-.1,2.42h0l16.16.36a1.16,1.16,0,0,0,.86-.34l10.86-10.38,17.95.4a1.16,1.16,0,0,0,.86-.34l35.1-33.56a1.21,1.21,0,0,0,.37-.84l.68-30.54,8.8-8.41a1.23,1.23,0,0,0,.37-.85l.55-24.4,5-4.77,24,.54a1.16,1.16,0,0,0,.86-.34l4.83-4.62,36.28.82a1.24,1.24,0,0,0,.86-.34l8.64-8.26A1.2,1.2,0,0,0,396,182.52Z"/></g><g class="cls-7"><path class="cls-25" d="M326.12,297.24l.09-4.09h0l1-45.26a1.23,1.23,0,0,0-.33-.85l-18.22-19.63a1.25,1.25,0,0,0-.86-.39l-17.6-.39a1.2,1.2,0,0,0-.86.34l-7.06,6.75-3.7-3.87.18-7.9,20.12-19.25a1.18,1.18,0,0,0,.38-.84l.25-11.38a1.23,1.23,0,0,0-.33-.87l-39.18-41a1.21,1.21,0,0,0-1.75,1.67l38.83,40.61-.23,10.38-20.13,19.25a1.23,1.23,0,0,0-.37.85l-.2,8.9a1.19,1.19,0,0,0,.33.86L281,235.9l-.26,11.73-4,3.8-8.68-.2a1.29,1.29,0,0,0-.87.34l-12.76,12.2-23.64-.53a1.16,1.16,0,0,0-.86.34l-6.83,6.53a1.21,1.21,0,0,0,.76,2.08,1.23,1.23,0,0,0,.91-.33l6.47-6.19,23.64.53a1.16,1.16,0,0,0,.86-.34l12.76-12.2,8.68.2a1.29,1.29,0,0,0,.87-.34l4.69-4.49a1.19,1.19,0,0,0,.37-.85l.28-12.22,7.21-6.9,16.58.37,17.55,18.9-.48,22.43-6.59,6.31-22.95-.51a1.23,1.23,0,0,0-.87.33L279,291.14,256.9,268.06a1.21,1.21,0,0,0-.85-.37l-10.36-.23a1.19,1.19,0,0,0-.86.33l-3.66,3.5a1.21,1.21,0,1,0,1.67,1.75l3.29-3.15,9.37.21,22.55,23.58h0l22.15,23.15a1.18,1.18,0,0,0,.84.38,1.29,1.29,0,0,0,.87-.34L323.73,296l0,.67-22.15,21.19a1.2,1.2,0,0,0-.38.85L301,329l-8.07,7.72-79.63-1.78a1.21,1.21,0,0,0-.1,2.41h0l80.13,1.8a1.24,1.24,0,0,0,.86-.34l6.69-6.39-.16,6.92L276.2,362.78a1.21,1.21,0,0,0,.77,2.08,1.23,1.23,0,0,0,.91-.33l24.87-23.79a1.22,1.22,0,0,0,.38-.85l.46-20.62,22.16-21.19A1.21,1.21,0,0,0,326.12,297.24Zm-25,17.06-20.48-21.41L295.17,279l22.95.52a1.2,1.2,0,0,0,.87-.34l5.21-5-.39,18.42Z"/></g><g class="cls-7"><path class="cls-26" d="M410.28,277.52,378,243.71a1.19,1.19,0,0,0-.85-.37L362.54,243l-7.88-8.24.5-22.55a1.19,1.19,0,0,0-.33-.86l-3-3.1,6.22.13,8,8.42a1.25,1.25,0,0,0,.85.37l20,.45a1.21,1.21,0,0,0,1.23-1.18,1.18,1.18,0,0,0-1.18-1.24l-19.46-.43-8-8.42a1.17,1.17,0,0,0-.85-.37l-39.92-.9a1.24,1.24,0,0,0-.86.34l-9.37,9-11.84-.26.07-3.1a1.2,1.2,0,0,0-1.18-1.24,1.22,1.22,0,0,0-1.24,1.18l-.1,4.31a1.22,1.22,0,0,0,1.14,1.24h.05l13.55.3a1.19,1.19,0,0,0,.86-.33l9.37-9,29.28.66,4.29,4.49-.5,22.55a1.19,1.19,0,0,0,.33.86l8.58,9a1.19,1.19,0,0,0,.85.37l14.57.33,32,33.44a1.2,1.2,0,0,0,.8.37,1.23,1.23,0,0,0,.91-.33A1.2,1.2,0,0,0,410.28,277.52Z"/></g><g class="cls-7"><path class="cls-27" d="M426.25,212.77a1.2,1.2,0,0,0-1.71,0L406,230.45l-35.76-.8-4.38-4.58a1.19,1.19,0,0,0-.85-.37l-12.58-.28a1.19,1.19,0,0,0-.86.33L347.12,229l-16.65-.37a1.19,1.19,0,0,0-.86.33l-6.92,6.62-19-19.85a1.18,1.18,0,0,0-.84-.37l-17.5-.39-13.92-14.57,0,0,0,0-14.33-15a1.27,1.27,0,0,0-.46-.49l-7.78-8.13.38-17.2a1.21,1.21,0,0,0-.35-.88l-6.49-6.58a1.21,1.21,0,0,0-1.72,1.7l6.13,6.22-.38,17.18a1.23,1.23,0,0,0,.33.87l6.31,6.59-22.37-.5a1.24,1.24,0,0,0-.86.34l-5.66,5.42a1.21,1.21,0,1,0,1.67,1.74l5.3-5.07,24.28.55,13.43,14-13.7,13.11-5.54-.13-12.42-13a1.21,1.21,0,1,0-1.75,1.67l12.77,13.36a1.22,1.22,0,0,0,.8.37h.05l6.53.15a1.29,1.29,0,0,0,.87-.34L270.51,203,284,217a1.17,1.17,0,0,0,.85.37l17.49.4,19.47,20.35a1.21,1.21,0,0,0,1.71,0l7.43-7.1,15.17.34.09.11,3.93,4.1-.29,13a1.19,1.19,0,0,0,.33.86l4.08,4.27a1.21,1.21,0,0,0,.85.37l9.35.21-.4,17.78a1.21,1.21,0,0,0,1.14,1.24h0a1.21,1.21,0,0,0,1.24-1.18l.42-19a1.19,1.19,0,0,0-.33-.86,1.16,1.16,0,0,0-.85-.37l-10.06-.23-3.38-3.54.29-13a1.29,1.29,0,0,0-.34-.87l-3.4-3.56,4.09-3.91,11.58.25,4.38,4.58a1.18,1.18,0,0,0,.84.38l36.77.82a1.16,1.16,0,0,0,.86-.34l18.9-18.06A1.2,1.2,0,0,0,426.25,212.77Z"/></g><rect class="cls-28" x="216.34" y="96.63" width="27.47" height="22.95" rx="5.57" transform="translate(2.45 -5.07) rotate(1.27)"/><rect class="cls-28" x="253.35" y="97.6" width="62.87" height="23.13" rx="5.57" transform="translate(2.49 -6.28) rotate(1.27)"/><rect class="cls-28" x="321.59" y="98.67" width="23.13" height="23.13" rx="5.57" transform="translate(2.52 -7.35) rotate(1.27)"/><rect class="cls-28" x="351.65" y="99.44" width="32.77" height="23.13" rx="5.57" transform="translate(2.55 -8.12) rotate(1.27)"/><rect class="cls-29" x="412.91" y="84.43" width="67.49" height="14.84" transform="translate(112.56 -218.5) rotate(31.27)"/><rect class="cls-30" x="412.99" y="83.37" width="52.38" height="14.84" transform="translate(17.08 -60.71) rotate(8.06)"/><rect class="cls-31" x="184.1" y="83.71" width="52.38" height="14.84" transform="translate(-1.36 3.2) rotate(-0.87)"/><rect class="cls-32" x="184.1" y="83.71" width="52.38" height="14.84" transform="translate(97.66 290.74) rotate(-84)"/><rect class="cls-33" x="177.91" y="373.83" width="39.62" height="14.84" transform="translate(119.62 -41.06) rotate(16.93)"/><rect class="cls-34" x="402.12" y="379.68" width="61.93" height="14.84" transform="translate(1010.52 324) rotate(131.97)"/><rect class="cls-35" x="415.4" y="372.69" width="61.93" height="14.84" transform="translate(708.94 904.31) rotate(-157.02)"/><rect class="cls-36" x="412.35" y="377.76" width="45.19" height="14.84" transform="translate(142.17 887.01) rotate(-101.27)"/><rect class="cls-37" x="177.91" y="373.83" width="39.62" height="14.84" transform="translate(-182.7 181.94) rotate(-34.94)"/></g><g id="Capa_6" data-name="Capa 6"><rect class="cls-38" width="1366.25" height="768"/></g></g></svg>