<svg xmlns="http://www.w3.org/2000/svg" width="100" height="100" viewBox="0 0 100 100">
  <g id="Logo" transform="translate(-142 -182)">
    <path id="Trazado_2" data-name="Trazado 2" d="M315.145,167.433a62.739,62.739,0,0,0-3.026-19.727,4.168,4.168,0,0,0-5.759-2.359,69.486,69.486,0,0,0-17.932,12.96,77.357,77.357,0,0,0-7.582,8.584,28.951,28.951,0,0,0-15.527-4.217c-.058,0-.116,0-.174,0s-.116,0-.174,0a28.953,28.953,0,0,0-15.528,4.217,77.322,77.322,0,0,0-7.582-8.584,69.484,69.484,0,0,0-17.932-12.96,4.168,4.168,0,0,0-5.759,2.359,62.74,62.74,0,0,0-3.026,19.727,68.226,68.226,0,0,0,.634,9.346,57.831,57.831,0,0,0,2.306,10.109,6.061,6.061,0,0,1,.112,3.524,46.964,46.964,0,0,0-1.663,12.553,44.172,44.172,0,0,0,3.8,18.408,25.258,25.258,0,0,0,2.388,4.271,32.252,32.252,0,0,0,2.233,2.87c2.908,3.275,10.506,6.015,13.48,7.154,11.6,4.441,13.3,7.651,22.477,8.895,1.773.24,3.249.329,4.232.366.983-.037,2.458-.126,4.231-.366,9.18-1.244,10.877-4.454,22.478-8.895,2.974-1.139,10.572-3.879,13.48-7.154a32.306,32.306,0,0,0,2.233-2.87,25.294,25.294,0,0,0,2.387-4.271,44.173,44.173,0,0,0,3.8-18.408,46.968,46.968,0,0,0-1.663-12.553,6.061,6.061,0,0,1,.112-3.524,57.817,57.817,0,0,0,2.306-10.109A68.216,68.216,0,0,0,315.145,167.433Z" transform="translate(-73.145 37.071)" fill="#de7c00"/>
  </g>
</svg>
